<mxfile host="65bd71144e">
    <diagram name="Page-1" id="hiDWRtrmu-53iti0Q9Xf">
        <mxGraphModel dx="6105" dy="4223" grid="1" gridSize="10" guides="1" tooltips="1" connect="1" arrows="1" fold="1" page="1" pageScale="1" pageWidth="850" pageHeight="1100" math="0" shadow="0">
            <root>
                <mxCell id="0"/>
                <mxCell id="1" parent="0"/>
                <mxCell id="k_uUMt3e5FIYH3u3VzYH-15" style="edgeStyle=orthogonalEdgeStyle;rounded=0;orthogonalLoop=1;jettySize=auto;html=1;endArrow=none;endFill=0;" parent="1" source="EqusiYMp2cIinQoo4IZe-16" target="W6KYNCeRG4IzSDQAHKKi-16" edge="1">
                    <mxGeometry relative="1" as="geometry"/>
                </mxCell>
                <mxCell id="17" style="edgeStyle=none;html=1;startArrow=none;startFill=0;endArrow=block;endFill=0;dashed=1;rounded=0;" edge="1" parent="1" source="EqusiYMp2cIinQoo4IZe-16" target="EqusiYMp2cIinQoo4IZe-21">
                    <mxGeometry relative="1" as="geometry">
                        <Array as="points">
                            <mxPoint x="-2600" y="-2200"/>
                        </Array>
                    </mxGeometry>
                </mxCell>
                <mxCell id="48" style="edgeStyle=none;rounded=0;html=1;startArrow=none;startFill=0;endArrow=none;endFill=0;" edge="1" parent="1">
                    <mxGeometry relative="1" as="geometry">
                        <mxPoint x="-2120" y="-2220" as="targetPoint"/>
                        <mxPoint x="-1650" y="-2220" as="sourcePoint"/>
                    </mxGeometry>
                </mxCell>
                <mxCell id="62" style="edgeStyle=none;rounded=0;html=1;dashed=1;startArrow=none;startFill=0;endArrow=open;endFill=0;exitX=0;exitY=0.787;exitDx=0;exitDy=0;exitPerimeter=0;entryX=0.887;entryY=0.001;entryDx=0;entryDy=0;entryPerimeter=0;" edge="1" parent="1" source="EqusiYMp2cIinQoo4IZe-19" target="wh1VDPlwhrJuEoQ05Rx--71">
                    <mxGeometry relative="1" as="geometry">
                        <Array as="points">
                            <mxPoint x="-1720" y="-2100"/>
                            <mxPoint x="-1760" y="-2100"/>
                        </Array>
                    </mxGeometry>
                </mxCell>
                <mxCell id="EqusiYMp2cIinQoo4IZe-16" value="#Bastion1Manager" style="swimlane;fontStyle=1;align=center;verticalAlign=top;childLayout=stackLayout;horizontal=1;startSize=30;horizontalStack=0;resizeParent=1;resizeParentMax=0;resizeLast=0;collapsible=1;marginBottom=0;whiteSpace=wrap;html=1;rounded=0;" parent="1" vertex="1">
                    <mxGeometry x="-1650" y="-2330" width="300" height="260" as="geometry"/>
                </mxCell>
                <mxCell id="EqusiYMp2cIinQoo4IZe-17" value="+ LevelState: LevelState&lt;br&gt;+ OnLevelStateChanged: Action&amp;lt;LevelState&amp;gt;&lt;br&gt;- -originalCameraPosition: Vector3&lt;br&gt;- _player: Transform&lt;br&gt;- _levelManager: LevelManager" style="text;strokeColor=none;fillColor=none;align=left;verticalAlign=top;spacingLeft=4;spacingRight=4;overflow=hidden;rotatable=0;points=[[0,0.5],[1,0.5]];portConstraint=eastwest;whiteSpace=wrap;html=1;rounded=0;" parent="EqusiYMp2cIinQoo4IZe-16" vertex="1">
                    <mxGeometry y="30" width="300" height="80" as="geometry"/>
                </mxCell>
                <mxCell id="EqusiYMp2cIinQoo4IZe-18" value="" style="line;strokeWidth=1;fillColor=none;align=left;verticalAlign=middle;spacingTop=-1;spacingLeft=3;spacingRight=3;rotatable=0;labelPosition=right;points=[];portConstraint=eastwest;strokeColor=inherit;rounded=0;" parent="EqusiYMp2cIinQoo4IZe-16" vertex="1">
                    <mxGeometry y="110" width="300" height="8" as="geometry"/>
                </mxCell>
                <mxCell id="EqusiYMp2cIinQoo4IZe-19" value="+ Save(SaveFile): SaveFile&lt;br&gt;+ Load(SaveFile): void&lt;br&gt;+ PickUpKey(int): void&lt;br&gt;+ ActivateLever(int): void&lt;br&gt;- Awake(): void&lt;br&gt;- UpdateLevelState(LevelState): void&lt;br&gt;- GameManagerOnGameStateChanged(GameState)&lt;br&gt;- HandleDeath(): void&lt;br&gt;- OnDisable(): void" style="text;strokeColor=none;fillColor=none;align=left;verticalAlign=top;spacingLeft=4;spacingRight=4;overflow=hidden;rotatable=0;points=[[0,0.5],[1,0.5]];portConstraint=eastwest;whiteSpace=wrap;html=1;rounded=0;" parent="EqusiYMp2cIinQoo4IZe-16" vertex="1">
                    <mxGeometry y="118" width="300" height="142" as="geometry"/>
                </mxCell>
                <mxCell id="EqusiYMp2cIinQoo4IZe-20" value="&amp;lt;&amp;lt;interface&amp;gt;&amp;gt;&lt;br&gt;#ISavable" style="swimlane;fontStyle=1;align=center;verticalAlign=top;childLayout=stackLayout;horizontal=1;startSize=40;horizontalStack=0;resizeParent=1;resizeParentMax=0;resizeLast=0;collapsible=1;marginBottom=0;whiteSpace=wrap;html=1;rounded=0;" parent="1" vertex="1">
                    <mxGeometry x="-2682" y="-2390" width="160" height="80" as="geometry">
                        <mxRectangle x="460" y="290" width="120" height="40" as="alternateBounds"/>
                    </mxGeometry>
                </mxCell>
                <mxCell id="EqusiYMp2cIinQoo4IZe-21" value="+ Save(SaveFile): SaveFile&lt;br&gt;+ Load(SaveFile): void" style="text;strokeColor=none;fillColor=none;align=left;verticalAlign=top;spacingLeft=4;spacingRight=4;overflow=hidden;rotatable=0;points=[[0,0.5],[1,0.5]];portConstraint=eastwest;whiteSpace=wrap;html=1;rounded=0;" parent="EqusiYMp2cIinQoo4IZe-20" vertex="1">
                    <mxGeometry y="40" width="160" height="40" as="geometry"/>
                </mxCell>
                <mxCell id="EqusiYMp2cIinQoo4IZe-25" value="#SaveSystem" style="swimlane;fontStyle=1;align=center;verticalAlign=top;childLayout=stackLayout;horizontal=1;startSize=30;horizontalStack=0;resizeParent=1;resizeParentMax=0;resizeLast=0;collapsible=1;marginBottom=0;whiteSpace=wrap;html=1;rounded=0;" parent="1" vertex="1">
                    <mxGeometry x="-2205" y="-2430" width="180" height="130" as="geometry"/>
                </mxCell>
                <mxCell id="EqusiYMp2cIinQoo4IZe-26" value="- _toSave: List&amp;lt;GameObject&amp;gt;&lt;br&gt;- _savables: List&amp;lt;ISavable&amp;gt;" style="text;strokeColor=none;fillColor=none;align=left;verticalAlign=top;spacingLeft=4;spacingRight=4;overflow=hidden;rotatable=0;points=[[0,0.5],[1,0.5]];portConstraint=eastwest;whiteSpace=wrap;html=1;rounded=0;" parent="EqusiYMp2cIinQoo4IZe-25" vertex="1">
                    <mxGeometry y="30" width="180" height="30" as="geometry"/>
                </mxCell>
                <mxCell id="EqusiYMp2cIinQoo4IZe-27" value="" style="line;strokeWidth=1;fillColor=none;align=left;verticalAlign=middle;spacingTop=-1;spacingLeft=3;spacingRight=3;rotatable=0;labelPosition=right;points=[];portConstraint=eastwest;strokeColor=inherit;rounded=0;" parent="EqusiYMp2cIinQoo4IZe-25" vertex="1">
                    <mxGeometry y="60" width="180" height="16" as="geometry"/>
                </mxCell>
                <mxCell id="EqusiYMp2cIinQoo4IZe-28" value="+ Save(): void&lt;br&gt;+ Load(): void&lt;br&gt;- Start(): void" style="text;strokeColor=none;fillColor=none;align=left;verticalAlign=top;spacingLeft=4;spacingRight=4;overflow=hidden;rotatable=0;points=[[0,0.5],[1,0.5]];portConstraint=eastwest;whiteSpace=wrap;html=1;rounded=0;" parent="EqusiYMp2cIinQoo4IZe-25" vertex="1">
                    <mxGeometry y="76" width="180" height="54" as="geometry"/>
                </mxCell>
                <mxCell id="W6KYNCeRG4IzSDQAHKKi-6" value="" style="edgeStyle=orthogonalEdgeStyle;rounded=0;orthogonalLoop=1;jettySize=auto;html=1;endArrow=block;endFill=1;" parent="1" source="W6KYNCeRG4IzSDQAHKKi-1" target="W6KYNCeRG4IzSDQAHKKi-5" edge="1">
                    <mxGeometry relative="1" as="geometry"/>
                </mxCell>
                <mxCell id="58" style="edgeStyle=none;rounded=0;html=1;startArrow=none;startFill=0;endArrow=none;endFill=0;" edge="1" parent="1" source="W6KYNCeRG4IzSDQAHKKi-1" target="EqusiYMp2cIinQoo4IZe-25">
                    <mxGeometry relative="1" as="geometry"/>
                </mxCell>
                <mxCell id="W6KYNCeRG4IzSDQAHKKi-1" value="&amp;lt;&amp;lt;struct&amp;gt;&amp;gt;&lt;br&gt;SaveFile" style="swimlane;fontStyle=1;align=center;verticalAlign=top;childLayout=stackLayout;horizontal=1;startSize=40;horizontalStack=0;resizeParent=1;resizeParentMax=0;resizeLast=0;collapsible=1;marginBottom=0;whiteSpace=wrap;html=1;rounded=0;" parent="1" vertex="1">
                    <mxGeometry x="-2462" y="-2435" width="180" height="140" as="geometry"/>
                </mxCell>
                <mxCell id="W6KYNCeRG4IzSDQAHKKi-2" value="+ Levers: bool[]&lt;br&gt;+ Doors: bool[]&lt;br&gt;+ PlacedKeys: int&lt;br&gt;+ CollectedKeys: int&lt;br&gt;+ VitralIsComplete: Vector3&lt;br&gt;+ LevelState: LevelState" style="text;strokeColor=none;fillColor=none;align=left;verticalAlign=top;spacingLeft=4;spacingRight=4;overflow=hidden;rotatable=0;points=[[0,0.5],[1,0.5]];portConstraint=eastwest;whiteSpace=wrap;html=1;rounded=0;" parent="W6KYNCeRG4IzSDQAHKKi-1" vertex="1">
                    <mxGeometry y="40" width="180" height="100" as="geometry"/>
                </mxCell>
                <mxCell id="W6KYNCeRG4IzSDQAHKKi-5" value="Serializable" style="rounded=0;whiteSpace=wrap;html=1;" parent="1" vertex="1">
                    <mxGeometry x="-2422" y="-2530" width="100" height="40" as="geometry"/>
                </mxCell>
                <mxCell id="W6KYNCeRG4IzSDQAHKKi-10" value="#InputManager" style="swimlane;fontStyle=1;align=center;verticalAlign=top;childLayout=stackLayout;horizontal=1;startSize=30;horizontalStack=0;resizeParent=1;resizeParentMax=0;resizeLast=0;collapsible=1;marginBottom=0;whiteSpace=wrap;html=1;rounded=0;" parent="1" vertex="1">
                    <mxGeometry x="-1590" y="-1638" width="180" height="100" as="geometry">
                        <mxRectangle x="460" y="290" width="120" height="40" as="alternateBounds"/>
                    </mxGeometry>
                </mxCell>
                <mxCell id="W6KYNCeRG4IzSDQAHKKi-14" value="-_playerActions: PlayerActions" style="text;strokeColor=default;fillColor=none;align=left;verticalAlign=top;spacingLeft=4;spacingRight=4;overflow=hidden;rotatable=0;points=[[0,0.5],[1,0.5]];portConstraint=eastwest;whiteSpace=wrap;html=1;rounded=0;" parent="W6KYNCeRG4IzSDQAHKKi-10" vertex="1">
                    <mxGeometry y="30" width="180" height="30" as="geometry"/>
                </mxCell>
                <mxCell id="W6KYNCeRG4IzSDQAHKKi-11" value="- Awake()&lt;br&gt;- OnDestroy()" style="text;strokeColor=default;fillColor=none;align=left;verticalAlign=top;spacingLeft=4;spacingRight=4;overflow=hidden;rotatable=0;points=[[0,0.5],[1,0.5]];portConstraint=eastwest;whiteSpace=wrap;html=1;rounded=0;" parent="W6KYNCeRG4IzSDQAHKKi-10" vertex="1">
                    <mxGeometry y="60" width="180" height="40" as="geometry"/>
                </mxCell>
                <mxCell id="W6KYNCeRG4IzSDQAHKKi-16" value="&amp;lt;&amp;lt;enum&amp;gt;&amp;gt;&lt;br&gt;#LevelState" style="swimlane;fontStyle=1;align=center;verticalAlign=top;childLayout=stackLayout;horizontal=1;startSize=40;horizontalStack=0;resizeParent=1;resizeParentMax=0;resizeLast=0;collapsible=1;marginBottom=0;whiteSpace=wrap;html=1;rounded=0;" parent="1" vertex="1">
                    <mxGeometry x="-1290" y="-2275" width="160" height="150" as="geometry">
                        <mxRectangle x="460" y="290" width="120" height="40" as="alternateBounds"/>
                    </mxGeometry>
                </mxCell>
                <mxCell id="W6KYNCeRG4IzSDQAHKKi-17" value="BastionState_Intro&lt;br&gt;BastionState_Puzzle1&lt;br&gt;WindTunnel&lt;br&gt;Bastion_Puzzle2&lt;br&gt;Bastion_Puzzle3&lt;br&gt;Bastion_Ending&lt;br&gt;Boat" style="text;strokeColor=none;fillColor=none;align=left;verticalAlign=top;spacingLeft=4;spacingRight=4;overflow=hidden;rotatable=0;points=[[0,0.5],[1,0.5]];portConstraint=eastwest;whiteSpace=wrap;html=1;rounded=0;" parent="W6KYNCeRG4IzSDQAHKKi-16" vertex="1">
                    <mxGeometry y="40" width="160" height="110" as="geometry"/>
                </mxCell>
                <mxCell id="k_uUMt3e5FIYH3u3VzYH-16" style="edgeStyle=orthogonalEdgeStyle;rounded=0;orthogonalLoop=1;jettySize=auto;html=1;endArrow=none;endFill=0;dashed=1;startArrow=open;startFill=0;entryX=0.468;entryY=-0.001;entryDx=0;entryDy=0;entryPerimeter=0;" parent="1" source="W6KYNCeRG4IzSDQAHKKi-18" target="EqusiYMp2cIinQoo4IZe-16" edge="1">
                    <mxGeometry relative="1" as="geometry">
                        <mxPoint x="-1320" y="-1960" as="targetPoint"/>
                        <Array as="points">
                            <mxPoint x="-1510" y="-2390"/>
                            <mxPoint x="-1510" y="-2390"/>
                        </Array>
                    </mxGeometry>
                </mxCell>
                <mxCell id="W6KYNCeRG4IzSDQAHKKi-18" value="#LevelManager" style="swimlane;fontStyle=1;align=center;verticalAlign=top;childLayout=stackLayout;horizontal=1;startSize=30;horizontalStack=0;resizeParent=1;resizeParentMax=0;resizeLast=0;collapsible=1;marginBottom=0;whiteSpace=wrap;html=1;rounded=0;" parent="1" vertex="1">
                    <mxGeometry x="-1650" y="-2515" width="300" height="120" as="geometry"/>
                </mxCell>
                <mxCell id="W6KYNCeRG4IzSDQAHKKi-19" value="+ OnGameStateChanged: Action&amp;lt;GameState&amp;gt;&lt;br&gt;- _state: GameState&lt;br&gt;" style="text;strokeColor=none;fillColor=none;align=left;verticalAlign=top;spacingLeft=4;spacingRight=4;overflow=hidden;rotatable=0;points=[[0,0.5],[1,0.5]];portConstraint=eastwest;whiteSpace=wrap;html=1;rounded=0;" parent="W6KYNCeRG4IzSDQAHKKi-18" vertex="1">
                    <mxGeometry y="30" width="300" height="40" as="geometry"/>
                </mxCell>
                <mxCell id="W6KYNCeRG4IzSDQAHKKi-20" value="" style="line;strokeWidth=1;fillColor=none;align=left;verticalAlign=middle;spacingTop=-1;spacingLeft=3;spacingRight=3;rotatable=0;labelPosition=right;points=[];portConstraint=eastwest;strokeColor=inherit;rounded=0;" parent="W6KYNCeRG4IzSDQAHKKi-18" vertex="1">
                    <mxGeometry y="70" width="300" height="8" as="geometry"/>
                </mxCell>
                <mxCell id="W6KYNCeRG4IzSDQAHKKi-21" value="+ UpdateGameState(GameState): void&lt;br&gt;+ RestartCurrentScene(): void" style="text;strokeColor=none;fillColor=none;align=left;verticalAlign=top;spacingLeft=4;spacingRight=4;overflow=hidden;rotatable=0;points=[[0,0.5],[1,0.5]];portConstraint=eastwest;whiteSpace=wrap;html=1;rounded=0;" parent="W6KYNCeRG4IzSDQAHKKi-18" vertex="1">
                    <mxGeometry y="78" width="300" height="42" as="geometry"/>
                </mxCell>
                <mxCell id="k_uUMt3e5FIYH3u3VzYH-14" style="edgeStyle=orthogonalEdgeStyle;rounded=0;orthogonalLoop=1;jettySize=auto;html=1;endArrow=none;endFill=0;" parent="1" source="W6KYNCeRG4IzSDQAHKKi-22" target="W6KYNCeRG4IzSDQAHKKi-18" edge="1">
                    <mxGeometry relative="1" as="geometry">
                        <Array as="points">
                            <mxPoint x="-1330" y="-2430"/>
                            <mxPoint x="-1330" y="-2430"/>
                        </Array>
                    </mxGeometry>
                </mxCell>
                <mxCell id="W6KYNCeRG4IzSDQAHKKi-22" value="&amp;lt;&amp;lt;enum&amp;gt;&amp;gt;&lt;br&gt;GameState" style="swimlane;fontStyle=1;align=center;verticalAlign=top;childLayout=stackLayout;horizontal=1;startSize=40;horizontalStack=0;resizeParent=1;resizeParentMax=0;resizeLast=0;collapsible=1;marginBottom=0;whiteSpace=wrap;html=1;rounded=0;" parent="1" vertex="1">
                    <mxGeometry x="-1280" y="-2515" width="160" height="170" as="geometry">
                        <mxRectangle x="460" y="290" width="120" height="40" as="alternateBounds"/>
                    </mxGeometry>
                </mxCell>
                <mxCell id="W6KYNCeRG4IzSDQAHKKi-23" value="Play&lt;br&gt;Paused&lt;br&gt;Save&lt;br&gt;Load&lt;br&gt;Victory&lt;br&gt;Death&lt;br&gt;Respawn&lt;br&gt;Remake" style="text;strokeColor=none;fillColor=none;align=left;verticalAlign=top;spacingLeft=4;spacingRight=4;overflow=hidden;rotatable=0;points=[[0,0.5],[1,0.5]];portConstraint=eastwest;whiteSpace=wrap;html=1;rounded=0;" parent="W6KYNCeRG4IzSDQAHKKi-22" vertex="1">
                    <mxGeometry y="40" width="160" height="130" as="geometry"/>
                </mxCell>
                <mxCell id="W6KYNCeRG4IzSDQAHKKi-36" value="ServiceLocator&lt;br&gt;" style="swimlane;fontStyle=1;align=center;verticalAlign=top;childLayout=stackLayout;horizontal=1;startSize=30;horizontalStack=0;resizeParent=1;resizeParentMax=0;resizeLast=0;collapsible=1;marginBottom=0;whiteSpace=wrap;html=1;rounded=0;" parent="1" vertex="1">
                    <mxGeometry x="-2090" y="-3025" width="340" height="110" as="geometry"/>
                </mxCell>
                <mxCell id="W6KYNCeRG4IzSDQAHKKi-37" value="- _serviceReferences: IDictionary&amp;lt;Type, MonoBehaviour&amp;gt;&lt;br&gt;" style="text;strokeColor=none;fillColor=none;align=left;verticalAlign=top;spacingLeft=4;spacingRight=4;overflow=hidden;rotatable=0;points=[[0,0.5],[1,0.5]];portConstraint=eastwest;whiteSpace=wrap;html=1;rounded=0;" parent="W6KYNCeRG4IzSDQAHKKi-36" vertex="1">
                    <mxGeometry y="30" width="340" height="30" as="geometry"/>
                </mxCell>
                <mxCell id="W6KYNCeRG4IzSDQAHKKi-38" value="" style="line;strokeWidth=1;fillColor=none;align=left;verticalAlign=middle;spacingTop=-1;spacingLeft=3;spacingRight=3;rotatable=0;labelPosition=right;points=[];portConstraint=eastwest;strokeColor=inherit;rounded=0;" parent="W6KYNCeRG4IzSDQAHKKi-36" vertex="1">
                    <mxGeometry y="60" width="340" height="8" as="geometry"/>
                </mxCell>
                <mxCell id="W6KYNCeRG4IzSDQAHKKi-39" value="# Awake(): void&lt;br&gt;+ GetService&amp;lt;MonoBehaviour&amp;gt;(): MonoBehaviour" style="text;strokeColor=none;fillColor=none;align=left;verticalAlign=top;spacingLeft=4;spacingRight=4;overflow=hidden;rotatable=0;points=[[0,0.5],[1,0.5]];portConstraint=eastwest;whiteSpace=wrap;html=1;rounded=0;" parent="W6KYNCeRG4IzSDQAHKKi-36" vertex="1">
                    <mxGeometry y="68" width="340" height="42" as="geometry"/>
                </mxCell>
                <mxCell id="7_FvTKRfDsuM_kTciPq4-1" value="&amp;lt;&amp;lt;abstract&amp;gt;&amp;gt;&lt;br&gt;Singleton&amp;lt;T&amp;gt;" style="swimlane;fontStyle=1;align=center;verticalAlign=top;childLayout=stackLayout;horizontal=1;startSize=40;horizontalStack=0;resizeParent=1;resizeParentMax=0;resizeLast=0;collapsible=1;marginBottom=0;whiteSpace=wrap;html=1;rounded=0;" parent="1" vertex="1">
                    <mxGeometry x="-1670" y="-3065" width="160" height="120" as="geometry"/>
                </mxCell>
                <mxCell id="7_FvTKRfDsuM_kTciPq4-2" value="- &lt;u&gt;_instance&lt;/u&gt;: T&lt;br&gt;+ &lt;u&gt;Instance: T&lt;/u&gt;" style="text;strokeColor=none;fillColor=none;align=left;verticalAlign=top;spacingLeft=4;spacingRight=4;overflow=hidden;rotatable=0;points=[[0,0.5],[1,0.5]];portConstraint=eastwest;whiteSpace=wrap;html=1;rounded=0;" parent="7_FvTKRfDsuM_kTciPq4-1" vertex="1">
                    <mxGeometry y="40" width="160" height="40" as="geometry"/>
                </mxCell>
                <mxCell id="7_FvTKRfDsuM_kTciPq4-3" value="" style="line;strokeWidth=1;fillColor=none;align=left;verticalAlign=middle;spacingTop=-1;spacingLeft=3;spacingRight=3;rotatable=0;labelPosition=right;points=[];portConstraint=eastwest;strokeColor=inherit;rounded=0;" parent="7_FvTKRfDsuM_kTciPq4-1" vertex="1">
                    <mxGeometry y="80" width="160" height="8" as="geometry"/>
                </mxCell>
                <mxCell id="7_FvTKRfDsuM_kTciPq4-4" value="# SingletonBuilder(T): void" style="text;strokeColor=none;fillColor=none;align=left;verticalAlign=top;spacingLeft=4;spacingRight=4;overflow=hidden;rotatable=0;points=[[0,0.5],[1,0.5]];portConstraint=eastwest;whiteSpace=wrap;html=1;rounded=0;" parent="7_FvTKRfDsuM_kTciPq4-1" vertex="1">
                    <mxGeometry y="88" width="160" height="32" as="geometry"/>
                </mxCell>
                <mxCell id="k_uUMt3e5FIYH3u3VzYH-6" style="edgeStyle=orthogonalEdgeStyle;rounded=0;orthogonalLoop=1;jettySize=auto;html=1;endArrow=none;endFill=0;" parent="1" edge="1">
                    <mxGeometry relative="1" as="geometry">
                        <mxPoint x="-630.1099999999994" y="-1892.5" as="sourcePoint"/>
                        <mxPoint x="-630" y="-1990" as="targetPoint"/>
                        <Array as="points">
                            <mxPoint x="-630.1099999999999" y="-1962.5"/>
                            <mxPoint x="-630.1099999999999" y="-1962.5"/>
                        </Array>
                    </mxGeometry>
                </mxCell>
                <mxCell id="16" style="edgeStyle=none;rounded=0;html=1;endArrow=open;endFill=0;startArrow=none;startFill=0;dashed=1;" edge="1" parent="1" source="KOgd2Xpb_pLB63_OI3lD-1" target="KOgd2Xpb_pLB63_OI3lD-12">
                    <mxGeometry relative="1" as="geometry">
                        <Array as="points">
                            <mxPoint x="-280" y="-1742.5"/>
                        </Array>
                    </mxGeometry>
                </mxCell>
                <object label="#CharacterLocomotion" hedietLinkedDataV1_path="../Characters/CharacterLocomotion.cs" hedietLinkedDataV1_start_col_x-num="13" hedietLinkedDataV1_start_line_x-num="95" hedietLinkedDataV1_end_col_x-num="13" hedietLinkedDataV1_end_line_x-num="95" id="KOgd2Xpb_pLB63_OI3lD-1">
                    <mxCell style="swimlane;fontStyle=1;align=center;verticalAlign=top;childLayout=stackLayout;horizontal=1;startSize=30;horizontalStack=0;resizeParent=1;resizeParentMax=0;resizeLast=0;collapsible=1;marginBottom=0;whiteSpace=wrap;html=1;rounded=0;" parent="1" vertex="1">
                        <mxGeometry x="-780" y="-1892.5" width="300" height="300" as="geometry">
                            <mxRectangle x="-960" y="-670" width="120" height="40" as="alternateBounds"/>
                        </mxGeometry>
                    </mxCell>
                </object>
                <mxCell id="KOgd2Xpb_pLB63_OI3lD-2" value="+ BaseRotation: float&lt;br&gt;+ BaseVelocity: Vector3&lt;br&gt;+ Body: Transform&lt;br&gt;+ Input: Vector2&lt;br&gt;+ NewVelocity: Vector3&lt;br&gt;+ Controller: CharacterController" style="text;strokeColor=default;fillColor=none;align=left;verticalAlign=top;spacingLeft=4;spacingRight=4;overflow=hidden;rotatable=0;points=[[0,0.5],[1,0.5]];portConstraint=eastwest;whiteSpace=wrap;html=1;rounded=0;" parent="KOgd2Xpb_pLB63_OI3lD-1" vertex="1">
                    <mxGeometry y="30" width="300" height="100" as="geometry"/>
                </mxCell>
                <mxCell id="KOgd2Xpb_pLB63_OI3lD-3" value="+ StartJump(): void&lt;br&gt;+ StopJump(): void&lt;br&gt;+ Run(): void&lt;br&gt;+ Walk(bool): void&lt;br&gt;+ ChangeState&amp;lt;MonoBehaviour, ILocomotionState&amp;gt;&lt;br&gt;+ GetNewHorizontalVelocity(float, float, float): Vector3&lt;br&gt;+ GetNewVerticalSpeed(float, float, float): Vector3&lt;br&gt;+ Rotate(float): void&lt;br&gt;- Update(): void&lt;br&gt;- Start(): void&lt;br&gt;- Awake(): void" style="text;strokeColor=default;fillColor=none;align=left;verticalAlign=top;spacingLeft=4;spacingRight=4;overflow=hidden;rotatable=0;points=[[0,0.5],[1,0.5]];portConstraint=eastwest;whiteSpace=wrap;html=1;rounded=0;" parent="KOgd2Xpb_pLB63_OI3lD-1" vertex="1">
                    <mxGeometry y="130" width="300" height="170" as="geometry"/>
                </mxCell>
                <mxCell id="KOgd2Xpb_pLB63_OI3lD-5" value="#PlayerManager" style="swimlane;fontStyle=1;align=center;verticalAlign=top;childLayout=stackLayout;horizontal=1;startSize=30;horizontalStack=0;resizeParent=1;resizeParentMax=0;resizeLast=0;collapsible=1;marginBottom=0;whiteSpace=wrap;html=1;rounded=0;" parent="1" vertex="1">
                    <mxGeometry x="-1625" y="-2035" width="250" height="70" as="geometry">
                        <mxRectangle x="460" y="290" width="120" height="40" as="alternateBounds"/>
                    </mxGeometry>
                </mxCell>
                <mxCell id="KOgd2Xpb_pLB63_OI3lD-7" value="- SetCanMove(bool): void&lt;br&gt;- Awake(): void" style="text;strokeColor=default;fillColor=none;align=left;verticalAlign=top;spacingLeft=4;spacingRight=4;overflow=hidden;rotatable=0;points=[[0,0.5],[1,0.5]];portConstraint=eastwest;whiteSpace=wrap;html=1;rounded=0;" parent="KOgd2Xpb_pLB63_OI3lD-5" vertex="1">
                    <mxGeometry y="30" width="250" height="40" as="geometry"/>
                </mxCell>
                <mxCell id="k_uUMt3e5FIYH3u3VzYH-11" style="edgeStyle=orthogonalEdgeStyle;rounded=0;orthogonalLoop=1;jettySize=auto;html=1;endArrow=diamondThin;endFill=1;" parent="1" source="KOgd2Xpb_pLB63_OI3lD-8" target="W6KYNCeRG4IzSDQAHKKi-10" edge="1">
                    <mxGeometry relative="1" as="geometry">
                        <Array as="points">
                            <mxPoint x="-1495" y="-1790"/>
                        </Array>
                    </mxGeometry>
                </mxCell>
                <mxCell id="43" style="edgeStyle=none;rounded=0;html=1;startArrow=none;startFill=0;endArrow=diamondThin;endFill=0;" edge="1" parent="1" source="KOgd2Xpb_pLB63_OI3lD-8" target="KOgd2Xpb_pLB63_OI3lD-7">
                    <mxGeometry relative="1" as="geometry"/>
                </mxCell>
                <mxCell id="KOgd2Xpb_pLB63_OI3lD-8" value="#PlayerInput" style="swimlane;fontStyle=1;align=center;verticalAlign=top;childLayout=stackLayout;horizontal=1;startSize=30;horizontalStack=0;resizeParent=1;resizeParentMax=0;resizeLast=0;collapsible=1;marginBottom=0;whiteSpace=wrap;html=1;rounded=0;" parent="1" vertex="1">
                    <mxGeometry x="-1645" y="-1890" width="290" height="200" as="geometry">
                        <mxRectangle x="460" y="290" width="120" height="40" as="alternateBounds"/>
                    </mxGeometry>
                </mxCell>
                <mxCell id="KOgd2Xpb_pLB63_OI3lD-9" value="+ CanMove: bool&lt;br&gt;- _deadzone: float&lt;br&gt;- _walkDeadzone: float&lt;br&gt;- _cameraPosition: Transform&lt;br&gt;" style="text;strokeColor=default;fillColor=none;align=left;verticalAlign=top;spacingLeft=4;spacingRight=4;overflow=hidden;rotatable=0;points=[[0,0.5],[1,0.5]];portConstraint=eastwest;whiteSpace=wrap;html=1;rounded=0;" parent="KOgd2Xpb_pLB63_OI3lD-8" vertex="1">
                    <mxGeometry y="30" width="290" height="70" as="geometry"/>
                </mxCell>
                <mxCell id="KOgd2Xpb_pLB63_OI3lD-10" value="+ Jump(InputAction.CallbackContext): void&lt;br&gt;+ Move(InputAction.CallbackContext): void&lt;br&gt;+ Walk(InputAction.CallbackContext) : void&lt;br&gt;+ Run(InputAction.CallbackContext): void&lt;br&gt;- Update(): void&lt;br&gt;- Start(): void" style="text;strokeColor=default;fillColor=none;align=left;verticalAlign=top;spacingLeft=4;spacingRight=4;overflow=hidden;rotatable=0;points=[[0,0.5],[1,0.5]];portConstraint=eastwest;whiteSpace=wrap;html=1;rounded=0;" parent="KOgd2Xpb_pLB63_OI3lD-8" vertex="1">
                    <mxGeometry y="100" width="290" height="100" as="geometry"/>
                </mxCell>
                <mxCell id="KOgd2Xpb_pLB63_OI3lD-12" value="#PlayerAnimation" style="swimlane;fontStyle=1;align=center;verticalAlign=top;childLayout=stackLayout;horizontal=1;startSize=30;horizontalStack=0;resizeParent=1;resizeParentMax=0;resizeLast=0;collapsible=1;marginBottom=0;whiteSpace=wrap;html=1;rounded=0;" parent="1" vertex="1">
                    <mxGeometry x="-400" y="-1892.5" width="240" height="100" as="geometry">
                        <mxRectangle x="460" y="290" width="120" height="40" as="alternateBounds"/>
                    </mxGeometry>
                </mxCell>
                <mxCell id="KOgd2Xpb_pLB63_OI3lD-13" value="+ Animator: Animator&lt;br&gt;" style="text;strokeColor=default;fillColor=none;align=left;verticalAlign=top;spacingLeft=4;spacingRight=4;overflow=hidden;rotatable=0;points=[[0,0.5],[1,0.5]];portConstraint=eastwest;whiteSpace=wrap;html=1;rounded=0;" parent="KOgd2Xpb_pLB63_OI3lD-12" vertex="1">
                    <mxGeometry y="30" width="240" height="30" as="geometry"/>
                </mxCell>
                <mxCell id="KOgd2Xpb_pLB63_OI3lD-14" value="+ ChangeAnimation(AnimationState): void&lt;br&gt;- Awake(): void" style="text;strokeColor=default;fillColor=none;align=left;verticalAlign=top;spacingLeft=4;spacingRight=4;overflow=hidden;rotatable=0;points=[[0,0.5],[1,0.5]];portConstraint=eastwest;whiteSpace=wrap;html=1;rounded=0;" parent="KOgd2Xpb_pLB63_OI3lD-12" vertex="1">
                    <mxGeometry y="60" width="240" height="40" as="geometry"/>
                </mxCell>
                <mxCell id="k_uUMt3e5FIYH3u3VzYH-10" style="edgeStyle=orthogonalEdgeStyle;rounded=0;orthogonalLoop=1;jettySize=auto;html=1;endArrow=none;endFill=0;" parent="1" source="KOgd2Xpb_pLB63_OI3lD-15" target="KOgd2Xpb_pLB63_OI3lD-12" edge="1">
                    <mxGeometry relative="1" as="geometry">
                        <Array as="points">
                            <mxPoint x="-245" y="-1782.5"/>
                            <mxPoint x="-245" y="-1782.5"/>
                        </Array>
                    </mxGeometry>
                </mxCell>
                <mxCell id="KOgd2Xpb_pLB63_OI3lD-15" value="&amp;lt;&amp;lt;enum&amp;gt;&amp;gt;&lt;br&gt;AnimationState" style="swimlane;fontStyle=1;align=center;verticalAlign=top;childLayout=stackLayout;horizontal=1;startSize=40;horizontalStack=0;resizeParent=1;resizeParentMax=0;resizeLast=0;collapsible=1;marginBottom=0;whiteSpace=wrap;html=1;rounded=0;" parent="1" vertex="1">
                    <mxGeometry x="-305" y="-1702.5" width="120" height="140" as="geometry">
                        <mxRectangle x="460" y="290" width="120" height="40" as="alternateBounds"/>
                    </mxGeometry>
                </mxCell>
                <mxCell id="KOgd2Xpb_pLB63_OI3lD-16" value="idle&lt;br&gt;walking&lt;br&gt;running&lt;br&gt;jumping&lt;br&gt;landing&lt;br&gt;falling" style="text;strokeColor=none;fillColor=none;align=left;verticalAlign=top;spacingLeft=4;spacingRight=4;overflow=hidden;rotatable=0;points=[[0,0.5],[1,0.5]];portConstraint=eastwest;whiteSpace=wrap;html=1;rounded=0;" parent="KOgd2Xpb_pLB63_OI3lD-15" vertex="1">
                    <mxGeometry y="40" width="120" height="100" as="geometry"/>
                </mxCell>
                <mxCell id="KOgd2Xpb_pLB63_OI3lD-32" value="#BoatMovement" style="swimlane;fontStyle=1;align=center;verticalAlign=top;childLayout=stackLayout;horizontal=1;startSize=30;horizontalStack=0;resizeParent=1;resizeParentMax=0;resizeLast=0;collapsible=1;marginBottom=0;whiteSpace=wrap;html=1;rounded=0;" parent="1" vertex="1">
                    <mxGeometry x="-900" y="-280" width="290" height="370" as="geometry">
                        <mxRectangle x="460" y="290" width="120" height="40" as="alternateBounds"/>
                    </mxGeometry>
                </mxCell>
                <mxCell id="KOgd2Xpb_pLB63_OI3lD-33" value="- rigidbody: Rigidbody&lt;br&gt;- boat_mode: bool&lt;br&gt;- WindForce: float&lt;br&gt;+ MaxVelocity: float&lt;br&gt;+ CurrentMaxVelocity: float&lt;br&gt;- VelocityLimitingStrenght: float&lt;br&gt;- TurningTorque: float&lt;br&gt;- MinVerticalAngle: float&lt;br&gt;- MaxVerticalAngle: float&lt;br&gt;- LimitingTorqueMultiplier: float&lt;br&gt;- LimitingOffsetExponent: float&lt;br&gt;- FowardStabilization: float&lt;br&gt;- input: PlayerInput&lt;br&gt;+ onInteraction: Action&amp;nbsp;" style="text;strokeColor=default;fillColor=none;align=left;verticalAlign=top;spacingLeft=4;spacingRight=4;overflow=hidden;rotatable=0;points=[[0,0.5],[1,0.5]];portConstraint=eastwest;whiteSpace=wrap;html=1;rounded=0;" parent="KOgd2Xpb_pLB63_OI3lD-32" vertex="1">
                    <mxGeometry y="30" width="290" height="210" as="geometry"/>
                </mxCell>
                <mxCell id="KOgd2Xpb_pLB63_OI3lD-34" value="- Start(): void&lt;br&gt;- FixedUpdate(): void&lt;br&gt;- OnTurn(InputValue): void&lt;br&gt;- OnPitch(InputValue): void&lt;br&gt;- OnRelease(): void&lt;br&gt;- OnSlow(InputValue): void&lt;br&gt;- OnSpeedUp(InputValue): void&lt;br&gt;- OnTriggerEnter(Collider): void" style="text;strokeColor=default;fillColor=none;align=left;verticalAlign=top;spacingLeft=4;spacingRight=4;overflow=hidden;rotatable=0;points=[[0,0.5],[1,0.5]];portConstraint=eastwest;whiteSpace=wrap;html=1;rounded=0;" parent="KOgd2Xpb_pLB63_OI3lD-32" vertex="1">
                    <mxGeometry y="240" width="290" height="130" as="geometry"/>
                </mxCell>
                <mxCell id="KOgd2Xpb_pLB63_OI3lD-36" value="&amp;lt;&amp;lt;struct&amp;gt;&amp;gt;&lt;br&gt;#PlayerInput" style="swimlane;fontStyle=1;align=center;verticalAlign=top;childLayout=stackLayout;horizontal=1;startSize=40;horizontalStack=0;resizeParent=1;resizeParentMax=0;resizeLast=0;collapsible=1;marginBottom=0;whiteSpace=wrap;html=1;rounded=0;" parent="1" vertex="1">
                    <mxGeometry x="-570" y="-280" width="120" height="120" as="geometry">
                        <mxRectangle x="460" y="290" width="120" height="40" as="alternateBounds"/>
                    </mxGeometry>
                </mxCell>
                <mxCell id="KOgd2Xpb_pLB63_OI3lD-37" value="+ Turn: float&lt;br&gt;+ Pitch: float&lt;br&gt;+ Reel: float&lt;br&gt;+ Slow: float&lt;br&gt;+ SpeedUp: float" style="text;strokeColor=none;fillColor=none;align=left;verticalAlign=top;spacingLeft=4;spacingRight=4;overflow=hidden;rotatable=0;points=[[0,0.5],[1,0.5]];portConstraint=eastwest;whiteSpace=wrap;html=1;rounded=0;" parent="KOgd2Xpb_pLB63_OI3lD-36" vertex="1">
                    <mxGeometry y="40" width="120" height="80" as="geometry"/>
                </mxCell>
                <mxCell id="KOgd2Xpb_pLB63_OI3lD-38" value="#BoatSailController" style="swimlane;fontStyle=1;align=center;verticalAlign=top;childLayout=stackLayout;horizontal=1;startSize=30;horizontalStack=0;resizeParent=1;resizeParentMax=0;resizeLast=0;collapsible=1;marginBottom=0;whiteSpace=wrap;html=1;rounded=0;" parent="1" vertex="1">
                    <mxGeometry x="-430" y="-280" width="330" height="190" as="geometry">
                        <mxRectangle x="460" y="290" width="120" height="40" as="alternateBounds"/>
                    </mxGeometry>
                </mxCell>
                <mxCell id="KOgd2Xpb_pLB63_OI3lD-39" value="- _modeParams: ModeParams[]&lt;br&gt;- modeParams: Dictionary&amp;lt;SailMode, ModeParams&amp;gt;&lt;br&gt;- modeList: List&amp;lt;SailMode&amp;gt;&lt;br&gt;- GravityTorque: float&lt;br&gt;- GravityForce: float&lt;br&gt;- rigidbody: Rigidbody" style="text;strokeColor=default;fillColor=none;align=left;verticalAlign=top;spacingLeft=4;spacingRight=4;overflow=hidden;rotatable=0;points=[[0,0.5],[1,0.5]];portConstraint=eastwest;whiteSpace=wrap;html=1;rounded=0;" parent="KOgd2Xpb_pLB63_OI3lD-38" vertex="1">
                    <mxGeometry y="30" width="330" height="100" as="geometry"/>
                </mxCell>
                <mxCell id="KOgd2Xpb_pLB63_OI3lD-40" value="- OnValidate(): void&lt;br&gt;# Awake(): void&lt;br&gt;- FixedUpdate(): void" style="text;strokeColor=default;fillColor=none;align=left;verticalAlign=top;spacingLeft=4;spacingRight=4;overflow=hidden;rotatable=0;points=[[0,0.5],[1,0.5]];portConstraint=eastwest;whiteSpace=wrap;html=1;rounded=0;" parent="KOgd2Xpb_pLB63_OI3lD-38" vertex="1">
                    <mxGeometry y="130" width="330" height="60" as="geometry"/>
                </mxCell>
                <mxCell id="KOgd2Xpb_pLB63_OI3lD-41" value="#ModeParams" style="swimlane;fontStyle=1;align=center;verticalAlign=top;childLayout=stackLayout;horizontal=1;startSize=30;horizontalStack=0;resizeParent=1;resizeParentMax=0;resizeLast=0;collapsible=1;marginBottom=0;whiteSpace=wrap;html=1;rounded=0;" parent="1" vertex="1">
                    <mxGeometry x="-70" y="-280" width="290" height="100" as="geometry">
                        <mxRectangle x="460" y="290" width="120" height="40" as="alternateBounds"/>
                    </mxGeometry>
                </mxCell>
                <mxCell id="KOgd2Xpb_pLB63_OI3lD-42" value="+ name: string&lt;br&gt;+ mode: SailMode&lt;br&gt;+ GravityTorqueMultiplier: float&lt;br&gt;+ GravityForceMultiplier: float" style="text;strokeColor=default;fillColor=none;align=left;verticalAlign=top;spacingLeft=4;spacingRight=4;overflow=hidden;rotatable=0;points=[[0,0.5],[1,0.5]];portConstraint=eastwest;whiteSpace=wrap;html=1;rounded=0;" parent="KOgd2Xpb_pLB63_OI3lD-41" vertex="1">
                    <mxGeometry y="30" width="290" height="70" as="geometry"/>
                </mxCell>
                <mxCell id="KOgd2Xpb_pLB63_OI3lD-44" value="#BoatSailHandler" style="swimlane;fontStyle=1;align=center;verticalAlign=top;childLayout=stackLayout;horizontal=1;startSize=30;horizontalStack=0;resizeParent=1;resizeParentMax=0;resizeLast=0;collapsible=1;marginBottom=0;whiteSpace=wrap;html=1;rounded=0;" parent="1" vertex="1">
                    <mxGeometry x="-440" y="-30" width="160" height="90" as="geometry">
                        <mxRectangle x="460" y="290" width="120" height="40" as="alternateBounds"/>
                    </mxGeometry>
                </mxCell>
                <mxCell id="KOgd2Xpb_pLB63_OI3lD-45" value="- modeList: List&amp;lt;SailMode&amp;gt;&lt;br&gt;" style="text;strokeColor=default;fillColor=none;align=left;verticalAlign=top;spacingLeft=4;spacingRight=4;overflow=hidden;rotatable=0;points=[[0,0.5],[1,0.5]];portConstraint=eastwest;whiteSpace=wrap;html=1;rounded=0;" parent="KOgd2Xpb_pLB63_OI3lD-44" vertex="1">
                    <mxGeometry y="30" width="160" height="30" as="geometry"/>
                </mxCell>
                <mxCell id="KOgd2Xpb_pLB63_OI3lD-46" value="- OnReel(InputValue): void" style="text;strokeColor=default;fillColor=none;align=left;verticalAlign=top;spacingLeft=4;spacingRight=4;overflow=hidden;rotatable=0;points=[[0,0.5],[1,0.5]];portConstraint=eastwest;whiteSpace=wrap;html=1;rounded=0;" parent="KOgd2Xpb_pLB63_OI3lD-44" vertex="1">
                    <mxGeometry y="60" width="160" height="30" as="geometry"/>
                </mxCell>
                <mxCell id="KOgd2Xpb_pLB63_OI3lD-47" value="#PlayerBoatBehaviour" style="swimlane;fontStyle=1;align=center;verticalAlign=top;childLayout=stackLayout;horizontal=1;startSize=30;horizontalStack=0;resizeParent=1;resizeParentMax=0;resizeLast=0;collapsible=1;marginBottom=0;whiteSpace=wrap;html=1;rounded=0;" parent="1" vertex="1">
                    <mxGeometry x="-250" y="-30" width="160" height="90" as="geometry">
                        <mxRectangle x="460" y="290" width="120" height="40" as="alternateBounds"/>
                    </mxGeometry>
                </mxCell>
                <mxCell id="KOgd2Xpb_pLB63_OI3lD-48" value="# player: PlayerBoatEntity" style="text;strokeColor=default;fillColor=none;align=left;verticalAlign=top;spacingLeft=4;spacingRight=4;overflow=hidden;rotatable=0;points=[[0,0.5],[1,0.5]];portConstraint=eastwest;whiteSpace=wrap;html=1;rounded=0;" parent="KOgd2Xpb_pLB63_OI3lD-47" vertex="1">
                    <mxGeometry y="30" width="160" height="30" as="geometry"/>
                </mxCell>
                <mxCell id="KOgd2Xpb_pLB63_OI3lD-49" value="# &lt;i&gt;Awake()&lt;/i&gt;: void" style="text;strokeColor=default;fillColor=none;align=left;verticalAlign=top;spacingLeft=4;spacingRight=4;overflow=hidden;rotatable=0;points=[[0,0.5],[1,0.5]];portConstraint=eastwest;whiteSpace=wrap;html=1;rounded=0;" parent="KOgd2Xpb_pLB63_OI3lD-47" vertex="1">
                    <mxGeometry y="60" width="160" height="30" as="geometry"/>
                </mxCell>
                <mxCell id="KOgd2Xpb_pLB63_OI3lD-50" value="#PlayerBoatEntity" style="swimlane;fontStyle=1;align=center;verticalAlign=top;childLayout=stackLayout;horizontal=1;startSize=30;horizontalStack=0;resizeParent=1;resizeParentMax=0;resizeLast=0;collapsible=1;marginBottom=0;whiteSpace=wrap;html=1;rounded=0;" parent="1" vertex="1">
                    <mxGeometry x="-30" y="-30" width="210" height="140" as="geometry">
                        <mxRectangle x="460" y="290" width="120" height="40" as="alternateBounds"/>
                    </mxGeometry>
                </mxCell>
                <mxCell id="KOgd2Xpb_pLB63_OI3lD-51" value="+ &lt;u&gt;instance&lt;/u&gt;: PlayerBoatEntity&lt;br&gt;+ movement: BoatMovement&lt;br&gt;+ rigidbody: Rigidbody&lt;br&gt;+ sailMode: SailMode&lt;br&gt;+ state: PlayerBoatState" style="text;strokeColor=default;fillColor=none;align=left;verticalAlign=top;spacingLeft=4;spacingRight=4;overflow=hidden;rotatable=0;points=[[0,0.5],[1,0.5]];portConstraint=eastwest;whiteSpace=wrap;html=1;rounded=0;" parent="KOgd2Xpb_pLB63_OI3lD-50" vertex="1">
                    <mxGeometry y="30" width="210" height="80" as="geometry"/>
                </mxCell>
                <mxCell id="KOgd2Xpb_pLB63_OI3lD-52" value="- Awake(): void" style="text;strokeColor=default;fillColor=none;align=left;verticalAlign=top;spacingLeft=4;spacingRight=4;overflow=hidden;rotatable=0;points=[[0,0.5],[1,0.5]];portConstraint=eastwest;whiteSpace=wrap;html=1;rounded=0;" parent="KOgd2Xpb_pLB63_OI3lD-50" vertex="1">
                    <mxGeometry y="110" width="210" height="30" as="geometry"/>
                </mxCell>
                <mxCell id="KOgd2Xpb_pLB63_OI3lD-53" value="&amp;lt;&amp;lt;enum&amp;gt;&amp;gt;&lt;br&gt;#PlayerBoatState" style="swimlane;fontStyle=1;align=center;verticalAlign=top;childLayout=stackLayout;horizontal=1;startSize=40;horizontalStack=0;resizeParent=1;resizeParentMax=0;resizeLast=0;collapsible=1;marginBottom=0;whiteSpace=wrap;html=1;rounded=0;" parent="1" vertex="1">
                    <mxGeometry x="-590" y="-90" width="130" height="100" as="geometry">
                        <mxRectangle x="460" y="290" width="120" height="40" as="alternateBounds"/>
                    </mxGeometry>
                </mxCell>
                <mxCell id="KOgd2Xpb_pLB63_OI3lD-54" value="Idle&lt;br&gt;Harpoon&lt;br&gt;Transition" style="text;strokeColor=none;fillColor=none;align=left;verticalAlign=top;spacingLeft=4;spacingRight=4;overflow=hidden;rotatable=0;points=[[0,0.5],[1,0.5]];portConstraint=eastwest;whiteSpace=wrap;html=1;rounded=0;" parent="KOgd2Xpb_pLB63_OI3lD-53" vertex="1">
                    <mxGeometry y="40" width="130" height="60" as="geometry"/>
                </mxCell>
                <mxCell id="KOgd2Xpb_pLB63_OI3lD-55" value="&amp;lt;&amp;lt;enum&amp;gt;&amp;gt;&lt;br&gt;#SailMode" style="swimlane;fontStyle=1;align=center;verticalAlign=top;childLayout=stackLayout;horizontal=1;startSize=40;horizontalStack=0;resizeParent=1;resizeParentMax=0;resizeLast=0;collapsible=1;marginBottom=0;whiteSpace=wrap;html=1;rounded=0;" parent="1" vertex="1">
                    <mxGeometry x="-590" y="20" width="100" height="90" as="geometry">
                        <mxRectangle x="460" y="290" width="120" height="40" as="alternateBounds"/>
                    </mxGeometry>
                </mxCell>
                <mxCell id="KOgd2Xpb_pLB63_OI3lD-56" value="Open&lt;br&gt;Closed&lt;br&gt;Off" style="text;strokeColor=none;fillColor=none;align=left;verticalAlign=top;spacingLeft=4;spacingRight=4;overflow=hidden;rotatable=0;points=[[0,0.5],[1,0.5]];portConstraint=eastwest;whiteSpace=wrap;html=1;rounded=0;" parent="KOgd2Xpb_pLB63_OI3lD-55" vertex="1">
                    <mxGeometry y="40" width="100" height="50" as="geometry"/>
                </mxCell>
                <mxCell id="k_uUMt3e5FIYH3u3VzYH-5" style="edgeStyle=orthogonalEdgeStyle;rounded=0;orthogonalLoop=1;jettySize=auto;html=1;endArrow=diamondThin;endFill=1;" parent="1" source="KOgd2Xpb_pLB63_OI3lD-59" target="KOgd2Xpb_pLB63_OI3lD-3" edge="1">
                    <mxGeometry relative="1" as="geometry">
                        <Array as="points">
                            <mxPoint x="-630" y="-1602.5"/>
                            <mxPoint x="-630" y="-1602.5"/>
                        </Array>
                    </mxGeometry>
                </mxCell>
                <mxCell id="KOgd2Xpb_pLB63_OI3lD-59" value="&amp;lt;&amp;lt;interface&amp;gt;&amp;gt;&lt;br&gt;#ILocomotionState" style="swimlane;fontStyle=1;align=center;verticalAlign=top;childLayout=stackLayout;horizontal=1;startSize=40;horizontalStack=0;resizeParent=1;resizeParentMax=0;resizeLast=0;collapsible=1;marginBottom=0;whiteSpace=wrap;html=1;rounded=0;" parent="1" vertex="1">
                    <mxGeometry x="-710" y="-1492.5" width="160" height="170" as="geometry">
                        <mxRectangle x="-960" y="-670" width="120" height="40" as="alternateBounds"/>
                    </mxGeometry>
                </mxCell>
                <mxCell id="KOgd2Xpb_pLB63_OI3lD-60" value="+ StartJump(): void&lt;br&gt;+ StopJump(): void&lt;br&gt;+ Move(): void&lt;br&gt;+ Run(): void&lt;br&gt;+ Walk(bool): void&lt;br&gt;+ Fall(): void&lt;br&gt;+ Ground(): void&lt;br&gt;+ StartState(): void" style="text;strokeColor=default;fillColor=none;align=left;verticalAlign=top;spacingLeft=4;spacingRight=4;overflow=hidden;rotatable=0;points=[[0,0.5],[1,0.5]];portConstraint=eastwest;whiteSpace=wrap;html=1;rounded=0;" parent="KOgd2Xpb_pLB63_OI3lD-59" vertex="1">
                    <mxGeometry y="40" width="160" height="130" as="geometry"/>
                </mxCell>
                <mxCell id="KOgd2Xpb_pLB63_OI3lD-62" value="" style="swimlane;startSize=0;rounded=0;" parent="1" vertex="1">
                    <mxGeometry x="-3990" y="-650" width="790" height="740" as="geometry"/>
                </mxCell>
                <mxCell id="KOgd2Xpb_pLB63_OI3lD-63" value="GameManager" style="swimlane;fontStyle=1;align=center;verticalAlign=top;childLayout=stackLayout;horizontal=1;startSize=30;horizontalStack=0;resizeParent=1;resizeParentMax=0;resizeLast=0;collapsible=1;marginBottom=0;whiteSpace=wrap;html=1;rounded=0;" parent="KOgd2Xpb_pLB63_OI3lD-62" vertex="1">
                    <mxGeometry x="30" y="83" width="120" height="100" as="geometry"/>
                </mxCell>
                <mxCell id="KOgd2Xpb_pLB63_OI3lD-64" value="- _scenes: Scene[]" style="text;strokeColor=none;fillColor=none;align=left;verticalAlign=top;spacingLeft=4;spacingRight=4;overflow=hidden;rotatable=0;points=[[0,0.5],[1,0.5]];portConstraint=eastwest;whiteSpace=wrap;html=1;rounded=0;" parent="KOgd2Xpb_pLB63_OI3lD-63" vertex="1">
                    <mxGeometry y="30" width="120" height="30" as="geometry"/>
                </mxCell>
                <mxCell id="KOgd2Xpb_pLB63_OI3lD-65" value="" style="line;strokeWidth=1;fillColor=none;align=left;verticalAlign=middle;spacingTop=-1;spacingLeft=3;spacingRight=3;rotatable=0;labelPosition=right;points=[];portConstraint=eastwest;strokeColor=inherit;rounded=0;" parent="KOgd2Xpb_pLB63_OI3lD-63" vertex="1">
                    <mxGeometry y="60" width="120" height="8" as="geometry"/>
                </mxCell>
                <mxCell id="KOgd2Xpb_pLB63_OI3lD-66" value="- Awake(): void&lt;br&gt;" style="text;strokeColor=none;fillColor=none;align=left;verticalAlign=top;spacingLeft=4;spacingRight=4;overflow=hidden;rotatable=0;points=[[0,0.5],[1,0.5]];portConstraint=eastwest;whiteSpace=wrap;html=1;rounded=0;" parent="KOgd2Xpb_pLB63_OI3lD-63" vertex="1">
                    <mxGeometry y="68" width="120" height="32" as="geometry"/>
                </mxCell>
                <mxCell id="KOgd2Xpb_pLB63_OI3lD-67" value="&amp;lt;&amp;lt;enum&amp;gt;&amp;gt;&lt;br&gt;Scene" style="swimlane;fontStyle=1;align=center;verticalAlign=top;childLayout=stackLayout;horizontal=1;startSize=60;horizontalStack=0;resizeParent=1;resizeParentMax=0;resizeLast=0;collapsible=1;marginBottom=0;whiteSpace=wrap;html=1;strokeColor=default;rounded=0;" parent="KOgd2Xpb_pLB63_OI3lD-62" vertex="1">
                    <mxGeometry x="230" y="83" width="120" height="47" as="geometry"/>
                </mxCell>
                <mxCell id="KOgd2Xpb_pLB63_OI3lD-68" value="Unused/WIP" style="text;html=1;align=center;verticalAlign=middle;resizable=0;points=[];autosize=1;strokeColor=none;fillColor=none;perimeterSpacing=1;fontSize=20;rounded=0;" parent="KOgd2Xpb_pLB63_OI3lD-62" vertex="1">
                    <mxGeometry x="325" y="20" width="140" height="40" as="geometry"/>
                </mxCell>
                <mxCell id="KOgd2Xpb_pLB63_OI3lD-69" value="CmBlendFinishedNotifier" style="swimlane;fontStyle=1;align=center;verticalAlign=top;childLayout=stackLayout;horizontal=1;startSize=30;horizontalStack=0;resizeParent=1;resizeParentMax=0;resizeLast=0;collapsible=1;marginBottom=0;whiteSpace=wrap;html=1;rounded=0;" parent="KOgd2Xpb_pLB63_OI3lD-62" vertex="1">
                    <mxGeometry x="20" y="220" width="390" height="180" as="geometry"/>
                </mxCell>
                <mxCell id="KOgd2Xpb_pLB63_OI3lD-70" value="- vcamBase: CinemachineVirtualCameraBase&lt;br&gt;- parentCamera: CinemachineStateDrivenCamera&lt;br&gt;+ OnBlendFinished: BlendFinishedEvent&lt;br&gt;- usingEvent: bool&lt;br&gt;- wasLive: bool" style="text;strokeColor=none;fillColor=none;align=left;verticalAlign=top;spacingLeft=4;spacingRight=4;overflow=hidden;rotatable=0;points=[[0,0.5],[1,0.5]];portConstraint=eastwest;whiteSpace=wrap;html=1;rounded=0;" parent="KOgd2Xpb_pLB63_OI3lD-69" vertex="1">
                    <mxGeometry y="30" width="390" height="80" as="geometry"/>
                </mxCell>
                <mxCell id="KOgd2Xpb_pLB63_OI3lD-71" value="" style="line;strokeWidth=1;fillColor=none;align=left;verticalAlign=middle;spacingTop=-1;spacingLeft=3;spacingRight=3;rotatable=0;labelPosition=right;points=[];portConstraint=eastwest;strokeColor=inherit;rounded=0;" parent="KOgd2Xpb_pLB63_OI3lD-69" vertex="1">
                    <mxGeometry y="110" width="390" height="8" as="geometry"/>
                </mxCell>
                <mxCell id="KOgd2Xpb_pLB63_OI3lD-72" value="- Start(): void&lt;br&gt;- OnCameraLive(ICinemachineCamera, ICinemachineCamera): void&lt;br&gt;- Update()" style="text;strokeColor=none;fillColor=none;align=left;verticalAlign=top;spacingLeft=4;spacingRight=4;overflow=hidden;rotatable=0;points=[[0,0.5],[1,0.5]];portConstraint=eastwest;whiteSpace=wrap;html=1;rounded=0;" parent="KOgd2Xpb_pLB63_OI3lD-69" vertex="1">
                    <mxGeometry y="118" width="390" height="62" as="geometry"/>
                </mxCell>
                <mxCell id="KOgd2Xpb_pLB63_OI3lD-73" value="CameraChooseSide" style="swimlane;fontStyle=1;align=center;verticalAlign=top;childLayout=stackLayout;horizontal=1;startSize=30;horizontalStack=0;resizeParent=1;resizeParentMax=0;resizeLast=0;collapsible=1;marginBottom=0;whiteSpace=wrap;html=1;rounded=0;" parent="KOgd2Xpb_pLB63_OI3lD-62" vertex="1">
                    <mxGeometry x="20" y="430" width="260" height="190" as="geometry"/>
                </mxCell>
                <mxCell id="KOgd2Xpb_pLB63_OI3lD-74" value="- target: Rigidbody&lt;br&gt;- AngularTreshold: float&lt;br&gt;- SideExponent: float&lt;br&gt;- LerpStrength: float&lt;br&gt;- MinVelocityLerp: float&lt;br&gt;- MinSide: float&lt;br&gt;- cameraFollow:&amp;nbsp;Cinemachine3rdPersonFollow" style="text;strokeColor=none;fillColor=none;align=left;verticalAlign=top;spacingLeft=4;spacingRight=4;overflow=hidden;rotatable=0;points=[[0,0.5],[1,0.5]];portConstraint=eastwest;whiteSpace=wrap;html=1;rounded=0;" parent="KOgd2Xpb_pLB63_OI3lD-73" vertex="1">
                    <mxGeometry y="30" width="260" height="110" as="geometry"/>
                </mxCell>
                <mxCell id="KOgd2Xpb_pLB63_OI3lD-75" value="" style="line;strokeWidth=1;fillColor=none;align=left;verticalAlign=middle;spacingTop=-1;spacingLeft=3;spacingRight=3;rotatable=0;labelPosition=right;points=[];portConstraint=eastwest;strokeColor=inherit;rounded=0;" parent="KOgd2Xpb_pLB63_OI3lD-73" vertex="1">
                    <mxGeometry y="140" width="260" height="8" as="geometry"/>
                </mxCell>
                <mxCell id="KOgd2Xpb_pLB63_OI3lD-76" value="- Start(): void&lt;br&gt;- Update()" style="text;strokeColor=none;fillColor=none;align=left;verticalAlign=top;spacingLeft=4;spacingRight=4;overflow=hidden;rotatable=0;points=[[0,0.5],[1,0.5]];portConstraint=eastwest;whiteSpace=wrap;html=1;rounded=0;" parent="KOgd2Xpb_pLB63_OI3lD-73" vertex="1">
                    <mxGeometry y="148" width="260" height="42" as="geometry"/>
                </mxCell>
                <mxCell id="wh1VDPlwhrJuEoQ05Rx--26" value="MovingPlatform" style="swimlane;fontStyle=1;align=center;verticalAlign=top;childLayout=stackLayout;horizontal=1;startSize=30;horizontalStack=0;resizeParent=1;resizeParentMax=0;resizeLast=0;collapsible=1;marginBottom=0;whiteSpace=wrap;html=1;rounded=0;" parent="KOgd2Xpb_pLB63_OI3lD-62" vertex="1">
                    <mxGeometry x="370" y="480" width="220" height="230" as="geometry"/>
                </mxCell>
                <mxCell id="wh1VDPlwhrJuEoQ05Rx--27" value="- _rotationSpeed: float&lt;br&gt;- _speed: float&lt;br&gt;- _distance: float&lt;br&gt;- _rotate: bool&lt;br&gt;- _move: bool&lt;br&gt;- _direction: Vector3&lt;br&gt;- _initialPosition: Vector3&lt;br&gt;+ Velocity: Vector3&lt;br&gt;- _lastPosition: Vector3&lt;br&gt;- _toMove: List&amp;lt;Transform&amp;gt;" style="text;strokeColor=none;fillColor=none;align=left;verticalAlign=top;spacingLeft=4;spacingRight=4;overflow=hidden;rotatable=0;points=[[0,0.5],[1,0.5]];portConstraint=eastwest;whiteSpace=wrap;html=1;rounded=0;" parent="wh1VDPlwhrJuEoQ05Rx--26" vertex="1">
                    <mxGeometry y="30" width="220" height="160" as="geometry"/>
                </mxCell>
                <mxCell id="wh1VDPlwhrJuEoQ05Rx--28" value="" style="line;strokeWidth=1;fillColor=none;align=left;verticalAlign=middle;spacingTop=-1;spacingLeft=3;spacingRight=3;rotatable=0;labelPosition=right;points=[];portConstraint=eastwest;strokeColor=inherit;rounded=0;" parent="wh1VDPlwhrJuEoQ05Rx--26" vertex="1">
                    <mxGeometry y="190" width="220" height="8" as="geometry"/>
                </mxCell>
                <mxCell id="wh1VDPlwhrJuEoQ05Rx--29" value="- Update(): void" style="text;strokeColor=none;fillColor=none;align=left;verticalAlign=top;spacingLeft=4;spacingRight=4;overflow=hidden;rotatable=0;points=[[0,0.5],[1,0.5]];portConstraint=eastwest;whiteSpace=wrap;html=1;rounded=0;" parent="wh1VDPlwhrJuEoQ05Rx--26" vertex="1">
                    <mxGeometry y="198" width="220" height="32" as="geometry"/>
                </mxCell>
                <mxCell id="wh1VDPlwhrJuEoQ05Rx--35" value="MainTunelVento" style="swimlane;fontStyle=1;align=center;verticalAlign=top;childLayout=stackLayout;horizontal=1;startSize=30;horizontalStack=0;resizeParent=1;resizeParentMax=0;resizeLast=0;collapsible=1;marginBottom=0;whiteSpace=wrap;html=1;rounded=0;" parent="KOgd2Xpb_pLB63_OI3lD-62" vertex="1">
                    <mxGeometry x="440" y="230" width="310" height="230" as="geometry"/>
                </mxCell>
                <mxCell id="wh1VDPlwhrJuEoQ05Rx--36" value="+ _player: GameObject&lt;br&gt;- overworldCamera: bool&lt;br&gt;+ pointB: GameObject&lt;br&gt;+ rate: float&lt;br&gt;- playerCam: CinemachineFreeLook&lt;br&gt;- vcam2: CinemachineFreeLook&lt;br&gt;- initialPlayerPosition: Vector3" style="text;strokeColor=none;fillColor=none;align=left;verticalAlign=top;spacingLeft=4;spacingRight=4;overflow=hidden;rotatable=0;points=[[0,0.5],[1,0.5]];portConstraint=eastwest;whiteSpace=wrap;html=1;rounded=0;" parent="wh1VDPlwhrJuEoQ05Rx--35" vertex="1">
                    <mxGeometry y="30" width="310" height="110" as="geometry"/>
                </mxCell>
                <mxCell id="wh1VDPlwhrJuEoQ05Rx--37" value="" style="line;strokeWidth=1;fillColor=none;align=left;verticalAlign=middle;spacingTop=-1;spacingLeft=3;spacingRight=3;rotatable=0;labelPosition=right;points=[];portConstraint=eastwest;strokeColor=inherit;rounded=0;" parent="wh1VDPlwhrJuEoQ05Rx--35" vertex="1">
                    <mxGeometry y="140" width="310" height="8" as="geometry"/>
                </mxCell>
                <mxCell id="wh1VDPlwhrJuEoQ05Rx--38" value="- Start(): void&lt;br&gt;- OnTriggerEnter(Collider): void&lt;br&gt;- OnTriggerExit(Collider): void&lt;br&gt;- SwitchPriority(): void&lt;br&gt;- MovePlayerToPointB(GameObject): IEnumerator" style="text;strokeColor=none;fillColor=none;align=left;verticalAlign=top;spacingLeft=4;spacingRight=4;overflow=hidden;rotatable=0;points=[[0,0.5],[1,0.5]];portConstraint=eastwest;whiteSpace=wrap;html=1;rounded=0;" parent="wh1VDPlwhrJuEoQ05Rx--35" vertex="1">
                    <mxGeometry y="148" width="310" height="82" as="geometry"/>
                </mxCell>
                <mxCell id="wh1VDPlwhrJuEoQ05Rx--95" value="ReadOnlyInspectorAttribute" style="swimlane;fontStyle=1;align=center;verticalAlign=top;childLayout=stackLayout;horizontal=1;startSize=60;horizontalStack=0;resizeParent=1;resizeParentMax=0;resizeLast=0;collapsible=1;marginBottom=0;whiteSpace=wrap;html=1;rounded=0;" parent="KOgd2Xpb_pLB63_OI3lD-62" vertex="1">
                    <mxGeometry x="620" y="580" width="170" height="30" as="geometry"/>
                </mxCell>
                <mxCell id="k_uUMt3e5FIYH3u3VzYH-4" style="edgeStyle=orthogonalEdgeStyle;rounded=0;orthogonalLoop=1;jettySize=auto;html=1;endArrow=block;endFill=0;dashed=1;" parent="1" source="KOgd2Xpb_pLB63_OI3lD-77" target="KOgd2Xpb_pLB63_OI3lD-60" edge="1">
                    <mxGeometry relative="1" as="geometry">
                        <Array as="points">
                            <mxPoint x="-150" y="-1272.5"/>
                            <mxPoint x="-630" y="-1272.5"/>
                        </Array>
                    </mxGeometry>
                </mxCell>
                <mxCell id="KOgd2Xpb_pLB63_OI3lD-77" value="#FallingState" style="swimlane;fontStyle=1;align=center;verticalAlign=top;childLayout=stackLayout;horizontal=1;startSize=30;horizontalStack=0;resizeParent=1;resizeParentMax=0;resizeLast=0;collapsible=1;marginBottom=0;whiteSpace=wrap;html=1;rounded=0;" parent="1" vertex="1">
                    <mxGeometry x="-280" y="-1217.5" width="260" height="300" as="geometry">
                        <mxRectangle x="-960" y="-670" width="120" height="40" as="alternateBounds"/>
                    </mxGeometry>
                </mxCell>
                <mxCell id="KOgd2Xpb_pLB63_OI3lD-79" value="- _gravity: float&lt;br&gt;- _maxFallSpeed: float&lt;br&gt;- _acceleration: float&lt;br&gt;- _maxSpeed: float&lt;br&gt;- _deceleration: float&lt;br&gt;- _rotationSpeed: float&lt;br&gt;- _walk: bool&lt;br&gt;- _characterLocomotion: CharacterLocomotion" style="text;strokeColor=default;fillColor=none;align=left;verticalAlign=top;spacingLeft=4;spacingRight=4;overflow=hidden;rotatable=0;points=[[0,0.5],[1,0.5]];portConstraint=eastwest;whiteSpace=wrap;html=1;rounded=0;" parent="KOgd2Xpb_pLB63_OI3lD-77" vertex="1">
                    <mxGeometry y="30" width="260" height="130" as="geometry"/>
                </mxCell>
                <mxCell id="KOgd2Xpb_pLB63_OI3lD-78" value="+ StartJump(): void&lt;br&gt;+ StopJump(): void&lt;br&gt;+ Move(): void&lt;br&gt;+ Run(): void&lt;br&gt;+ Walk(bool): void&lt;br&gt;+ Fall(): void&lt;br&gt;+ Ground(): void&lt;br&gt;+ StartState(): void&lt;br&gt;+ Awake(): void" style="text;strokeColor=default;fillColor=none;align=left;verticalAlign=top;spacingLeft=4;spacingRight=4;overflow=hidden;rotatable=0;points=[[0,0.5],[1,0.5]];portConstraint=eastwest;whiteSpace=wrap;html=1;rounded=0;" parent="KOgd2Xpb_pLB63_OI3lD-77" vertex="1">
                    <mxGeometry y="160" width="260" height="140" as="geometry"/>
                </mxCell>
                <mxCell id="12" style="edgeStyle=none;rounded=0;html=1;dashed=1;endArrow=none;endFill=0;" edge="1" parent="1" source="KOgd2Xpb_pLB63_OI3lD-80">
                    <mxGeometry relative="1" as="geometry">
                        <mxPoint x="-520" y="-1272.5" as="targetPoint"/>
                    </mxGeometry>
                </mxCell>
                <mxCell id="KOgd2Xpb_pLB63_OI3lD-80" value="#GlidingState" style="swimlane;fontStyle=1;align=center;verticalAlign=top;childLayout=stackLayout;horizontal=1;startSize=30;horizontalStack=0;resizeParent=1;resizeParentMax=0;resizeLast=0;collapsible=1;marginBottom=0;whiteSpace=wrap;html=1;rounded=0;" parent="1" vertex="1">
                    <mxGeometry x="-650" y="-1217.5" width="260" height="310" as="geometry">
                        <mxRectangle x="-960" y="-670" width="120" height="40" as="alternateBounds"/>
                    </mxGeometry>
                </mxCell>
                <mxCell id="KOgd2Xpb_pLB63_OI3lD-81" value="- _gravity: float&lt;br&gt;- _maxFallSpeed: float&lt;br&gt;- _acceleration: float&lt;br&gt;- _maxSpeed: float&lt;br&gt;- _deceleration: float&lt;br&gt;- _rotationSpeed: float&lt;br&gt;- _glider: GameObject&lt;br&gt;- _walk: bool&lt;br&gt;- _characterLocomotion: CharacterLocomotion" style="text;strokeColor=default;fillColor=none;align=left;verticalAlign=top;spacingLeft=4;spacingRight=4;overflow=hidden;rotatable=0;points=[[0,0.5],[1,0.5]];portConstraint=eastwest;whiteSpace=wrap;html=1;rounded=0;" parent="KOgd2Xpb_pLB63_OI3lD-80" vertex="1">
                    <mxGeometry y="30" width="260" height="140" as="geometry"/>
                </mxCell>
                <mxCell id="KOgd2Xpb_pLB63_OI3lD-82" value="+ StartJump(): void&lt;br&gt;+ StopJump(): void&lt;br&gt;+ Move(): void&lt;br&gt;+ Run(): void&lt;br&gt;+ Walk(bool): void&lt;br&gt;+ Fall(): void&lt;br&gt;+ Ground(): void&lt;br&gt;+ StartState(): void&lt;br&gt;+ Awake(): void" style="text;strokeColor=default;fillColor=none;align=left;verticalAlign=top;spacingLeft=4;spacingRight=4;overflow=hidden;rotatable=0;points=[[0,0.5],[1,0.5]];portConstraint=eastwest;whiteSpace=wrap;html=1;rounded=0;" parent="KOgd2Xpb_pLB63_OI3lD-80" vertex="1">
                    <mxGeometry y="170" width="260" height="140" as="geometry"/>
                </mxCell>
                <mxCell id="11" style="edgeStyle=none;rounded=0;html=1;dashed=1;endArrow=none;endFill=0;" edge="1" parent="1" source="KOgd2Xpb_pLB63_OI3lD-83">
                    <mxGeometry relative="1" as="geometry">
                        <mxPoint x="-840" y="-1272.5" as="targetPoint"/>
                    </mxGeometry>
                </mxCell>
                <mxCell id="KOgd2Xpb_pLB63_OI3lD-83" value="#JumpingState" style="swimlane;fontStyle=1;align=center;verticalAlign=top;childLayout=stackLayout;horizontal=1;startSize=30;horizontalStack=0;resizeParent=1;resizeParentMax=0;resizeLast=0;collapsible=1;marginBottom=0;whiteSpace=wrap;html=1;rounded=0;" parent="1" vertex="1">
                    <mxGeometry x="-970" y="-1217.5" width="260" height="340" as="geometry">
                        <mxRectangle x="-960" y="-670" width="120" height="40" as="alternateBounds"/>
                    </mxGeometry>
                </mxCell>
                <mxCell id="KOgd2Xpb_pLB63_OI3lD-84" value="- _gravity: float&lt;br&gt;- _jumpForce: float&lt;br&gt;- _stoppingJumpForce: float&lt;br&gt;- _acceleration: float&lt;br&gt;- _maxSpeed: float&lt;br&gt;- _deceleration: float&lt;br&gt;- _rotationSpeed: float&lt;br&gt;- _characterLocomotion: CharacterLocomotion&lt;br&gt;- _jump: bool&lt;br&gt;- _stopJump: bool&lt;br&gt;- _walk: bool" style="text;strokeColor=default;fillColor=none;align=left;verticalAlign=top;spacingLeft=4;spacingRight=4;overflow=hidden;rotatable=0;points=[[0,0.5],[1,0.5]];portConstraint=eastwest;whiteSpace=wrap;html=1;rounded=0;" parent="KOgd2Xpb_pLB63_OI3lD-83" vertex="1">
                    <mxGeometry y="30" width="260" height="170" as="geometry"/>
                </mxCell>
                <mxCell id="KOgd2Xpb_pLB63_OI3lD-85" value="+ StartJump(): void&lt;br&gt;+ StopJump(): void&lt;br&gt;+ Move(): void&lt;br&gt;+ Run(): void&lt;br&gt;+ Walk(bool): void&lt;br&gt;+ Fall(): void&lt;br&gt;+ Ground(): void&lt;br&gt;+ StartState(): void&lt;br&gt;+ Awake(): void" style="text;strokeColor=default;fillColor=none;align=left;verticalAlign=top;spacingLeft=4;spacingRight=4;overflow=hidden;rotatable=0;points=[[0,0.5],[1,0.5]];portConstraint=eastwest;whiteSpace=wrap;html=1;rounded=0;" parent="KOgd2Xpb_pLB63_OI3lD-83" vertex="1">
                    <mxGeometry y="200" width="260" height="140" as="geometry"/>
                </mxCell>
                <mxCell id="4" style="edgeStyle=none;html=1;endArrow=open;endFill=0;rounded=0;dashed=1;entryX=0.14;entryY=0.999;entryDx=0;entryDy=0;entryPerimeter=0;" edge="1" parent="1" source="KOgd2Xpb_pLB63_OI3lD-86" target="KOgd2Xpb_pLB63_OI3lD-3">
                    <mxGeometry relative="1" as="geometry">
                        <mxPoint x="-730" y="-1562.5" as="targetPoint"/>
                        <Array as="points">
                            <mxPoint x="-1160" y="-1272.5"/>
                            <mxPoint x="-740" y="-1272.5"/>
                        </Array>
                    </mxGeometry>
                </mxCell>
                <mxCell id="KOgd2Xpb_pLB63_OI3lD-86" value="#RunningState" style="swimlane;fontStyle=1;align=center;verticalAlign=top;childLayout=stackLayout;horizontal=1;startSize=30;horizontalStack=0;resizeParent=1;resizeParentMax=0;resizeLast=0;collapsible=1;marginBottom=0;whiteSpace=wrap;html=1;rounded=0;" parent="1" vertex="1">
                    <mxGeometry x="-1290" y="-1217.5" width="260" height="270" as="geometry">
                        <mxRectangle x="-960" y="-670" width="120" height="40" as="alternateBounds"/>
                    </mxGeometry>
                </mxCell>
                <mxCell id="KOgd2Xpb_pLB63_OI3lD-87" value="- _acceleration: float&lt;br&gt;- _maxSpeed: float&lt;br&gt;- _deceleration: float&lt;br&gt;- _rotationSpeed: float&lt;br&gt;- _walk: bool&lt;br&gt;- _characterLocomotion: CharacterLocomotion" style="text;strokeColor=default;fillColor=none;align=left;verticalAlign=top;spacingLeft=4;spacingRight=4;overflow=hidden;rotatable=0;points=[[0,0.5],[1,0.5]];portConstraint=eastwest;whiteSpace=wrap;html=1;rounded=0;" parent="KOgd2Xpb_pLB63_OI3lD-86" vertex="1">
                    <mxGeometry y="30" width="260" height="100" as="geometry"/>
                </mxCell>
                <mxCell id="KOgd2Xpb_pLB63_OI3lD-88" value="+ StartJump(): void&lt;br&gt;+ StopJump(): void&lt;br&gt;+ Move(): void&lt;br&gt;+ Run(): void&lt;br&gt;+ Walk(bool): void&lt;br&gt;+ Fall(): void&lt;br&gt;+ Ground(): void&lt;br&gt;+ StartState(): void&lt;br&gt;+ Awake(): void" style="text;strokeColor=default;fillColor=none;align=left;verticalAlign=top;spacingLeft=4;spacingRight=4;overflow=hidden;rotatable=0;points=[[0,0.5],[1,0.5]];portConstraint=eastwest;whiteSpace=wrap;html=1;rounded=0;" parent="KOgd2Xpb_pLB63_OI3lD-86" vertex="1">
                    <mxGeometry y="130" width="260" height="140" as="geometry"/>
                </mxCell>
                <mxCell id="KOgd2Xpb_pLB63_OI3lD-93" value="Beacon" style="swimlane;fontStyle=1;align=center;verticalAlign=top;childLayout=stackLayout;horizontal=1;startSize=30;horizontalStack=0;resizeParent=1;resizeParentMax=0;resizeLast=0;collapsible=1;marginBottom=0;whiteSpace=wrap;html=1;rounded=0;" parent="1" vertex="1">
                    <mxGeometry x="-2040" y="-310" width="190" height="130" as="geometry"/>
                </mxCell>
                <mxCell id="KOgd2Xpb_pLB63_OI3lD-94" value="- _beacon: bool" style="text;strokeColor=none;fillColor=none;align=left;verticalAlign=top;spacingLeft=4;spacingRight=4;overflow=hidden;rotatable=0;points=[[0,0.5],[1,0.5]];portConstraint=eastwest;whiteSpace=wrap;html=1;rounded=0;" parent="KOgd2Xpb_pLB63_OI3lD-93" vertex="1">
                    <mxGeometry y="30" width="190" height="30" as="geometry"/>
                </mxCell>
                <mxCell id="KOgd2Xpb_pLB63_OI3lD-95" value="" style="line;strokeWidth=1;fillColor=none;align=left;verticalAlign=middle;spacingTop=-1;spacingLeft=3;spacingRight=3;rotatable=0;labelPosition=right;points=[];portConstraint=eastwest;strokeColor=inherit;rounded=0;" parent="KOgd2Xpb_pLB63_OI3lD-93" vertex="1">
                    <mxGeometry y="60" width="190" height="8" as="geometry"/>
                </mxCell>
                <mxCell id="KOgd2Xpb_pLB63_OI3lD-96" value="- OnTriggerEnter(Collider): void&lt;br&gt;+ Entered(): void&lt;br&gt;+ Appear(): void" style="text;strokeColor=none;fillColor=none;align=left;verticalAlign=top;spacingLeft=4;spacingRight=4;overflow=hidden;rotatable=0;points=[[0,0.5],[1,0.5]];portConstraint=eastwest;whiteSpace=wrap;html=1;rounded=0;" parent="KOgd2Xpb_pLB63_OI3lD-93" vertex="1">
                    <mxGeometry y="68" width="190" height="62" as="geometry"/>
                </mxCell>
                <mxCell id="KOgd2Xpb_pLB63_OI3lD-97" value="BoatSails" style="swimlane;fontStyle=1;align=center;verticalAlign=top;childLayout=stackLayout;horizontal=1;startSize=30;horizontalStack=0;resizeParent=1;resizeParentMax=0;resizeLast=0;collapsible=1;marginBottom=0;whiteSpace=wrap;html=1;rounded=0;" parent="1" vertex="1">
                    <mxGeometry x="-2220" y="-310" width="140" height="140" as="geometry"/>
                </mxCell>
                <mxCell id="KOgd2Xpb_pLB63_OI3lD-98" value="- sails_size: float" style="text;strokeColor=none;fillColor=none;align=left;verticalAlign=top;spacingLeft=4;spacingRight=4;overflow=hidden;rotatable=0;points=[[0,0.5],[1,0.5]];portConstraint=eastwest;whiteSpace=wrap;html=1;rounded=0;" parent="KOgd2Xpb_pLB63_OI3lD-97" vertex="1">
                    <mxGeometry y="30" width="140" height="30" as="geometry"/>
                </mxCell>
                <mxCell id="KOgd2Xpb_pLB63_OI3lD-99" value="" style="line;strokeWidth=1;fillColor=none;align=left;verticalAlign=middle;spacingTop=-1;spacingLeft=3;spacingRight=3;rotatable=0;labelPosition=right;points=[];portConstraint=eastwest;strokeColor=inherit;rounded=0;" parent="KOgd2Xpb_pLB63_OI3lD-97" vertex="1">
                    <mxGeometry y="60" width="140" height="8" as="geometry"/>
                </mxCell>
                <mxCell id="KOgd2Xpb_pLB63_OI3lD-100" value="- Start(): void&lt;br&gt;- FIxedUpdate(): void&lt;br&gt;+ RaiseSails(): void&lt;br&gt;+ LowerSails(): void" style="text;strokeColor=none;fillColor=none;align=left;verticalAlign=top;spacingLeft=4;spacingRight=4;overflow=hidden;rotatable=0;points=[[0,0.5],[1,0.5]];portConstraint=eastwest;whiteSpace=wrap;html=1;rounded=0;" parent="KOgd2Xpb_pLB63_OI3lD-97" vertex="1">
                    <mxGeometry y="68" width="140" height="72" as="geometry"/>
                </mxCell>
                <mxCell id="KOgd2Xpb_pLB63_OI3lD-102" value="BoatTutorialManager" style="swimlane;fontStyle=1;align=center;verticalAlign=top;childLayout=stackLayout;horizontal=1;startSize=30;horizontalStack=0;resizeParent=1;resizeParentMax=0;resizeLast=0;collapsible=1;marginBottom=0;whiteSpace=wrap;html=1;rounded=0;" parent="1" vertex="1">
                    <mxGeometry x="-1820" y="-310" width="140" height="100" as="geometry"/>
                </mxCell>
                <mxCell id="KOgd2Xpb_pLB63_OI3lD-103" value="- beacons: Beacons[]" style="text;strokeColor=none;fillColor=none;align=left;verticalAlign=top;spacingLeft=4;spacingRight=4;overflow=hidden;rotatable=0;points=[[0,0.5],[1,0.5]];portConstraint=eastwest;whiteSpace=wrap;html=1;rounded=0;" parent="KOgd2Xpb_pLB63_OI3lD-102" vertex="1">
                    <mxGeometry y="30" width="140" height="30" as="geometry"/>
                </mxCell>
                <mxCell id="KOgd2Xpb_pLB63_OI3lD-104" value="" style="line;strokeWidth=1;fillColor=none;align=left;verticalAlign=middle;spacingTop=-1;spacingLeft=3;spacingRight=3;rotatable=0;labelPosition=right;points=[];portConstraint=eastwest;strokeColor=inherit;rounded=0;" parent="KOgd2Xpb_pLB63_OI3lD-102" vertex="1">
                    <mxGeometry y="60" width="140" height="8" as="geometry"/>
                </mxCell>
                <mxCell id="KOgd2Xpb_pLB63_OI3lD-105" value="+ Next(): void" style="text;strokeColor=none;fillColor=none;align=left;verticalAlign=top;spacingLeft=4;spacingRight=4;overflow=hidden;rotatable=0;points=[[0,0.5],[1,0.5]];portConstraint=eastwest;whiteSpace=wrap;html=1;rounded=0;" parent="KOgd2Xpb_pLB63_OI3lD-102" vertex="1">
                    <mxGeometry y="68" width="140" height="32" as="geometry"/>
                </mxCell>
                <mxCell id="KOgd2Xpb_pLB63_OI3lD-106" value="WindVolume" style="swimlane;fontStyle=1;align=center;verticalAlign=top;childLayout=stackLayout;horizontal=1;startSize=30;horizontalStack=0;resizeParent=1;resizeParentMax=0;resizeLast=0;collapsible=1;marginBottom=0;whiteSpace=wrap;html=1;rounded=0;" parent="1" vertex="1">
                    <mxGeometry x="-2660" y="-70" width="190" height="130" as="geometry"/>
                </mxCell>
                <mxCell id="KOgd2Xpb_pLB63_OI3lD-107" value="-&amp;nbsp;WindDirection: Quartenion&lt;br&gt;- WindForce: float&lt;br&gt;+ Force: Vector3" style="text;strokeColor=none;fillColor=none;align=left;verticalAlign=top;spacingLeft=4;spacingRight=4;overflow=hidden;rotatable=0;points=[[0,0.5],[1,0.5]];portConstraint=eastwest;whiteSpace=wrap;html=1;rounded=0;" parent="KOgd2Xpb_pLB63_OI3lD-106" vertex="1">
                    <mxGeometry y="30" width="190" height="50" as="geometry"/>
                </mxCell>
                <mxCell id="KOgd2Xpb_pLB63_OI3lD-108" value="" style="line;strokeWidth=1;fillColor=none;align=left;verticalAlign=middle;spacingTop=-1;spacingLeft=3;spacingRight=3;rotatable=0;labelPosition=right;points=[];portConstraint=eastwest;strokeColor=inherit;rounded=0;" parent="KOgd2Xpb_pLB63_OI3lD-106" vertex="1">
                    <mxGeometry y="80" width="190" height="8" as="geometry"/>
                </mxCell>
                <mxCell id="KOgd2Xpb_pLB63_OI3lD-109" value="- OnTriggerEnter(Collider): void&lt;br&gt;- OnTriggerExit(Collider): void" style="text;strokeColor=none;fillColor=none;align=left;verticalAlign=top;spacingLeft=4;spacingRight=4;overflow=hidden;rotatable=0;points=[[0,0.5],[1,0.5]];portConstraint=eastwest;whiteSpace=wrap;html=1;rounded=0;" parent="KOgd2Xpb_pLB63_OI3lD-106" vertex="1">
                    <mxGeometry y="88" width="190" height="42" as="geometry"/>
                </mxCell>
                <mxCell id="KOgd2Xpb_pLB63_OI3lD-110" value="&amp;lt;&amp;lt;interface&amp;gt;&amp;gt;&lt;br&gt;IWIndEffector" style="swimlane;fontStyle=1;align=center;verticalAlign=top;childLayout=stackLayout;horizontal=1;startSize=40;horizontalStack=0;resizeParent=1;resizeParentMax=0;resizeLast=0;collapsible=1;marginBottom=0;whiteSpace=wrap;html=1;rounded=0;" parent="1" vertex="1">
                    <mxGeometry x="-2530" y="-310" width="130" height="70" as="geometry"/>
                </mxCell>
                <mxCell id="KOgd2Xpb_pLB63_OI3lD-111" value="+ GetForce(): Vector3&amp;nbsp;" style="text;strokeColor=none;fillColor=none;align=left;verticalAlign=top;spacingLeft=4;spacingRight=4;overflow=hidden;rotatable=0;points=[[0,0.5],[1,0.5]];portConstraint=eastwest;whiteSpace=wrap;html=1;rounded=0;" parent="KOgd2Xpb_pLB63_OI3lD-110" vertex="1">
                    <mxGeometry y="40" width="130" height="30" as="geometry"/>
                </mxCell>
                <mxCell id="KOgd2Xpb_pLB63_OI3lD-114" value="WindManager" style="swimlane;fontStyle=1;align=center;verticalAlign=top;childLayout=stackLayout;horizontal=1;startSize=30;horizontalStack=0;resizeParent=1;resizeParentMax=0;resizeLast=0;collapsible=1;marginBottom=0;whiteSpace=wrap;html=1;rounded=0;" parent="1" vertex="1">
                    <mxGeometry x="-2850" y="-350" width="260" height="190" as="geometry"/>
                </mxCell>
                <mxCell id="KOgd2Xpb_pLB63_OI3lD-115" value="- &lt;u&gt;instance&lt;/u&gt;: WindsManager&lt;br&gt;-&amp;nbsp;&lt;u&gt;currentEffectors&lt;/u&gt;: HashSet&amp;lt;IWindEffector&amp;gt;&lt;br&gt;+ TorqueMultiplier: float&lt;br&gt;+ MaxVelocityInCurrent: float" style="text;strokeColor=none;fillColor=none;align=left;verticalAlign=top;spacingLeft=4;spacingRight=4;overflow=hidden;rotatable=0;points=[[0,0.5],[1,0.5]];portConstraint=eastwest;whiteSpace=wrap;html=1;rounded=0;" parent="KOgd2Xpb_pLB63_OI3lD-114" vertex="1">
                    <mxGeometry y="30" width="260" height="70" as="geometry"/>
                </mxCell>
                <mxCell id="KOgd2Xpb_pLB63_OI3lD-116" value="" style="line;strokeWidth=1;fillColor=none;align=left;verticalAlign=middle;spacingTop=-1;spacingLeft=3;spacingRight=3;rotatable=0;labelPosition=right;points=[];portConstraint=eastwest;strokeColor=inherit;rounded=0;" parent="KOgd2Xpb_pLB63_OI3lD-114" vertex="1">
                    <mxGeometry y="100" width="260" height="8" as="geometry"/>
                </mxCell>
                <mxCell id="KOgd2Xpb_pLB63_OI3lD-117" value="- Awake(): void&lt;br&gt;- FixedUpdate(): void&lt;br&gt;+ &lt;u&gt;OnPlayerEnter(IWindEffector)&lt;/u&gt;: void&lt;br&gt;+ &lt;u&gt;OnPlayerLeave(IWindEffector)&lt;/u&gt;: void&lt;br&gt;- OnDestroy(): void&lt;br&gt;" style="text;strokeColor=none;fillColor=none;align=left;verticalAlign=top;spacingLeft=4;spacingRight=4;overflow=hidden;rotatable=0;points=[[0,0.5],[1,0.5]];portConstraint=eastwest;whiteSpace=wrap;html=1;rounded=0;" parent="KOgd2Xpb_pLB63_OI3lD-114" vertex="1">
                    <mxGeometry y="108" width="260" height="82" as="geometry"/>
                </mxCell>
                <mxCell id="KOgd2Xpb_pLB63_OI3lD-118" value="WindVolumeEditor" style="swimlane;fontStyle=1;align=center;verticalAlign=top;childLayout=stackLayout;horizontal=1;startSize=30;horizontalStack=0;resizeParent=1;resizeParentMax=0;resizeLast=0;collapsible=1;marginBottom=0;whiteSpace=wrap;html=1;rounded=0;" parent="1" vertex="1">
                    <mxGeometry x="-2870" y="-70" width="150" height="60" as="geometry"/>
                </mxCell>
                <mxCell id="KOgd2Xpb_pLB63_OI3lD-119" value="+ OnInspectorGUI()" style="text;strokeColor=none;fillColor=none;align=left;verticalAlign=top;spacingLeft=4;spacingRight=4;overflow=hidden;rotatable=0;points=[[0,0.5],[1,0.5]];portConstraint=eastwest;whiteSpace=wrap;html=1;rounded=0;" parent="KOgd2Xpb_pLB63_OI3lD-118" vertex="1">
                    <mxGeometry y="30" width="150" height="30" as="geometry"/>
                </mxCell>
                <mxCell id="KOgd2Xpb_pLB63_OI3lD-122" value="WindVolumeEditorTool" style="swimlane;fontStyle=1;align=center;verticalAlign=top;childLayout=stackLayout;horizontal=1;startSize=30;horizontalStack=0;resizeParent=1;resizeParentMax=0;resizeLast=0;collapsible=1;marginBottom=0;whiteSpace=wrap;html=1;rounded=0;" parent="1" vertex="1">
                    <mxGeometry x="-3070" y="-70" width="150" height="60" as="geometry"/>
                </mxCell>
                <mxCell id="KOgd2Xpb_pLB63_OI3lD-123" value="+ OnToolGUI()" style="text;strokeColor=none;fillColor=none;align=left;verticalAlign=top;spacingLeft=4;spacingRight=4;overflow=hidden;rotatable=0;points=[[0,0.5],[1,0.5]];portConstraint=eastwest;whiteSpace=wrap;html=1;rounded=0;" parent="KOgd2Xpb_pLB63_OI3lD-122" vertex="1">
                    <mxGeometry y="30" width="150" height="30" as="geometry"/>
                </mxCell>
                <mxCell id="KOgd2Xpb_pLB63_OI3lD-124" value="WindHeightEffector" style="swimlane;fontStyle=1;align=center;verticalAlign=top;childLayout=stackLayout;horizontal=1;startSize=30;horizontalStack=0;resizeParent=1;resizeParentMax=0;resizeLast=0;collapsible=1;marginBottom=0;whiteSpace=wrap;html=1;rounded=0;" parent="1" vertex="1">
                    <mxGeometry x="-2400" y="-70" width="190" height="180" as="geometry"/>
                </mxCell>
                <mxCell id="KOgd2Xpb_pLB63_OI3lD-125" value="+ Force: Vector3&lt;br&gt;- HeightTreshold: float&lt;br&gt;- WindDirection: Direction&lt;br&gt;- ForceDistanceMultiplier: float&lt;br&gt;- currentForce: Vector3&lt;br&gt;- wasInside: bool" style="text;strokeColor=none;fillColor=none;align=left;verticalAlign=top;spacingLeft=4;spacingRight=4;overflow=hidden;rotatable=0;points=[[0,0.5],[1,0.5]];portConstraint=eastwest;whiteSpace=wrap;html=1;rounded=0;" parent="KOgd2Xpb_pLB63_OI3lD-124" vertex="1">
                    <mxGeometry y="30" width="190" height="100" as="geometry"/>
                </mxCell>
                <mxCell id="KOgd2Xpb_pLB63_OI3lD-126" value="" style="line;strokeWidth=1;fillColor=none;align=left;verticalAlign=middle;spacingTop=-1;spacingLeft=3;spacingRight=3;rotatable=0;labelPosition=right;points=[];portConstraint=eastwest;strokeColor=inherit;rounded=0;" parent="KOgd2Xpb_pLB63_OI3lD-124" vertex="1">
                    <mxGeometry y="130" width="190" height="8" as="geometry"/>
                </mxCell>
                <mxCell id="KOgd2Xpb_pLB63_OI3lD-127" value="-&amp;nbsp;OnDrawGizmosSelected(): void&lt;br&gt;- FixedUpdate(): void" style="text;strokeColor=none;fillColor=none;align=left;verticalAlign=top;spacingLeft=4;spacingRight=4;overflow=hidden;rotatable=0;points=[[0,0.5],[1,0.5]];portConstraint=eastwest;whiteSpace=wrap;html=1;rounded=0;" parent="KOgd2Xpb_pLB63_OI3lD-124" vertex="1">
                    <mxGeometry y="138" width="190" height="42" as="geometry"/>
                </mxCell>
                <mxCell id="KOgd2Xpb_pLB63_OI3lD-128" value="WindCurrent" style="swimlane;fontStyle=1;align=center;verticalAlign=top;childLayout=stackLayout;horizontal=1;startSize=30;horizontalStack=0;resizeParent=1;resizeParentMax=0;resizeLast=0;collapsible=1;marginBottom=0;whiteSpace=wrap;html=1;rounded=0;" parent="1" vertex="1">
                    <mxGeometry x="-2125" y="-70" width="350" height="470" as="geometry"/>
                </mxCell>
                <mxCell id="KOgd2Xpb_pLB63_OI3lD-129" value="+ points: Vector3[]&lt;br&gt;+ radius: float&lt;br&gt;+ steps: int&lt;br&gt;+ StartDirection: Quartenion&lt;br&gt;+ EndDirection: Quartenion&lt;br&gt;+ StartStrength: float&lt;br&gt;+ EndStrength: float&lt;br&gt;+ PullTowardsCenter: bool&lt;br&gt;+ PullTowardsCenterStrength: float&lt;br&gt;+ RadiusIntensity: float&lt;br&gt;+ UseCustomDirections: bool&lt;br&gt;+ ColliderPrefab: WindCurrentCollider&lt;br&gt;- editorColliders: List&amp;lt;WindCurrentCollider&amp;gt;&lt;br&gt;- currentColliders: HashSet&amp;lt;WindCurrentColliders&amp;gt;&lt;br&gt;+ Force: Vector3&lt;br&gt;- player: PlayerBoatEntity" style="text;strokeColor=none;fillColor=none;align=left;verticalAlign=top;spacingLeft=4;spacingRight=4;overflow=hidden;rotatable=0;points=[[0,0.5],[1,0.5]];portConstraint=eastwest;whiteSpace=wrap;html=1;rounded=0;" parent="KOgd2Xpb_pLB63_OI3lD-128" vertex="1">
                    <mxGeometry y="30" width="350" height="240" as="geometry"/>
                </mxCell>
                <mxCell id="KOgd2Xpb_pLB63_OI3lD-130" value="" style="line;strokeWidth=1;fillColor=none;align=left;verticalAlign=middle;spacingTop=-1;spacingLeft=3;spacingRight=3;rotatable=0;labelPosition=right;points=[];portConstraint=eastwest;strokeColor=inherit;rounded=0;" parent="KOgd2Xpb_pLB63_OI3lD-128" vertex="1">
                    <mxGeometry y="270" width="350" height="8" as="geometry"/>
                </mxCell>
                <mxCell id="KOgd2Xpb_pLB63_OI3lD-131" value="+ OnValidate(): void&lt;br&gt;+ OnEnable(): void&lt;br&gt;- Fixedupdate(): void&lt;br&gt;+ GetCurvePoint(float): Vector3&lt;br&gt;+&amp;nbsp;GetCurvePointDerivative(float): Vector3&lt;br&gt;- OnDrawGizmos(): void&lt;br&gt;+ OnPlayerEnter(WindCurrentCollider, PlayerBoatEntity): void&lt;br&gt;+ OnPlayerLeaves(WindCurrentCollider): void&lt;br&gt;+ RefreshColliders(): void&lt;br&gt;+ UpdateWindDirection(): void&lt;br&gt;+ ClosestPoint(Vector3): Vector3&lt;br&gt;+ &lt;u&gt;NearestPointOnLine(Vector3, Vector3, Vector3)&lt;/u&gt;: Vector3" style="text;strokeColor=none;fillColor=none;align=left;verticalAlign=top;spacingLeft=4;spacingRight=4;overflow=hidden;rotatable=0;points=[[0,0.5],[1,0.5]];portConstraint=eastwest;whiteSpace=wrap;html=1;rounded=0;" parent="KOgd2Xpb_pLB63_OI3lD-128" vertex="1">
                    <mxGeometry y="278" width="350" height="192" as="geometry"/>
                </mxCell>
                <mxCell id="KOgd2Xpb_pLB63_OI3lD-132" value="WindCurrentCollider" style="swimlane;fontStyle=1;align=center;verticalAlign=top;childLayout=stackLayout;horizontal=1;startSize=30;horizontalStack=0;resizeParent=1;resizeParentMax=0;resizeLast=0;collapsible=1;marginBottom=0;whiteSpace=wrap;html=1;rounded=0;" parent="1" vertex="1">
                    <mxGeometry x="-1710" y="-70" width="190" height="200" as="geometry"/>
                </mxCell>
                <mxCell id="KOgd2Xpb_pLB63_OI3lD-133" value="+ direction: Quartenion&lt;br&gt;+ strength: float&lt;br&gt;+ t: float&lt;br&gt;+ previous: WindCurrentCollider&lt;br&gt;+ next: WindCurrentCollider&lt;br&gt;- parent: WindCurrent&lt;br&gt;+ Radius: float&lt;br&gt;" style="text;strokeColor=none;fillColor=none;align=left;verticalAlign=top;spacingLeft=4;spacingRight=4;overflow=hidden;rotatable=0;points=[[0,0.5],[1,0.5]];portConstraint=eastwest;whiteSpace=wrap;html=1;rounded=0;" parent="KOgd2Xpb_pLB63_OI3lD-132" vertex="1">
                    <mxGeometry y="30" width="190" height="110" as="geometry"/>
                </mxCell>
                <mxCell id="KOgd2Xpb_pLB63_OI3lD-134" value="" style="line;strokeWidth=1;fillColor=none;align=left;verticalAlign=middle;spacingTop=-1;spacingLeft=3;spacingRight=3;rotatable=0;labelPosition=right;points=[];portConstraint=eastwest;strokeColor=inherit;rounded=0;" parent="KOgd2Xpb_pLB63_OI3lD-132" vertex="1">
                    <mxGeometry y="140" width="190" height="8" as="geometry"/>
                </mxCell>
                <mxCell id="KOgd2Xpb_pLB63_OI3lD-135" value="- Start(): void&lt;br&gt;- OnTriggerEnter(Collider): void&lt;br&gt;- OnTriggerExit(Collider): void" style="text;strokeColor=none;fillColor=none;align=left;verticalAlign=top;spacingLeft=4;spacingRight=4;overflow=hidden;rotatable=0;points=[[0,0.5],[1,0.5]];portConstraint=eastwest;whiteSpace=wrap;html=1;rounded=0;" parent="KOgd2Xpb_pLB63_OI3lD-132" vertex="1">
                    <mxGeometry y="148" width="190" height="52" as="geometry"/>
                </mxCell>
                <mxCell id="KOgd2Xpb_pLB63_OI3lD-136" value="WindCurrentEditor" style="swimlane;fontStyle=1;align=center;verticalAlign=top;childLayout=stackLayout;horizontal=1;startSize=30;horizontalStack=0;resizeParent=1;resizeParentMax=0;resizeLast=0;collapsible=1;marginBottom=0;whiteSpace=wrap;html=1;rounded=0;" parent="1" vertex="1">
                    <mxGeometry x="-1710" y="170" width="370" height="120" as="geometry"/>
                </mxCell>
                <mxCell id="KOgd2Xpb_pLB63_OI3lD-137" value="+ HandleScaleFactor: float&lt;br&gt;" style="text;strokeColor=none;fillColor=none;align=left;verticalAlign=top;spacingLeft=4;spacingRight=4;overflow=hidden;rotatable=0;points=[[0,0.5],[1,0.5]];portConstraint=eastwest;whiteSpace=wrap;html=1;rounded=0;" parent="KOgd2Xpb_pLB63_OI3lD-136" vertex="1">
                    <mxGeometry y="30" width="370" height="30" as="geometry"/>
                </mxCell>
                <mxCell id="KOgd2Xpb_pLB63_OI3lD-138" value="" style="line;strokeWidth=1;fillColor=none;align=left;verticalAlign=middle;spacingTop=-1;spacingLeft=3;spacingRight=3;rotatable=0;labelPosition=right;points=[];portConstraint=eastwest;strokeColor=inherit;rounded=0;" parent="KOgd2Xpb_pLB63_OI3lD-136" vertex="1">
                    <mxGeometry y="60" width="370" height="8" as="geometry"/>
                </mxCell>
                <mxCell id="KOgd2Xpb_pLB63_OI3lD-139" value="- OnSceneGUI(): void&lt;br&gt;+ OnInspectorGUI(): void&lt;br&gt;- ShowPointHandle(WindCurrent, int, Transform, Quartenion): void" style="text;strokeColor=none;fillColor=none;align=left;verticalAlign=top;spacingLeft=4;spacingRight=4;overflow=hidden;rotatable=0;points=[[0,0.5],[1,0.5]];portConstraint=eastwest;whiteSpace=wrap;html=1;rounded=0;" parent="KOgd2Xpb_pLB63_OI3lD-136" vertex="1">
                    <mxGeometry y="68" width="370" height="52" as="geometry"/>
                </mxCell>
                <mxCell id="wh1VDPlwhrJuEoQ05Rx--1" value="WindCurrentEditorTool" style="swimlane;fontStyle=1;align=center;verticalAlign=top;childLayout=stackLayout;horizontal=1;startSize=30;horizontalStack=0;resizeParent=1;resizeParentMax=0;resizeLast=0;collapsible=1;marginBottom=0;whiteSpace=wrap;html=1;rounded=0;" parent="1" vertex="1">
                    <mxGeometry x="-1720" y="430" width="210" height="60" as="geometry"/>
                </mxCell>
                <mxCell id="wh1VDPlwhrJuEoQ05Rx--4" value="+ OnToolGUI(EditorWindow): void" style="text;strokeColor=none;fillColor=none;align=left;verticalAlign=top;spacingLeft=4;spacingRight=4;overflow=hidden;rotatable=0;points=[[0,0.5],[1,0.5]];portConstraint=eastwest;whiteSpace=wrap;html=1;rounded=0;" parent="wh1VDPlwhrJuEoQ05Rx--1" vertex="1">
                    <mxGeometry y="30" width="210" height="30" as="geometry"/>
                </mxCell>
                <mxCell id="wh1VDPlwhrJuEoQ05Rx--6" value="BastionLandingZone" style="swimlane;fontStyle=1;align=center;verticalAlign=top;childLayout=stackLayout;horizontal=1;startSize=30;horizontalStack=0;resizeParent=1;resizeParentMax=0;resizeLast=0;collapsible=1;marginBottom=0;whiteSpace=wrap;html=1;rounded=0;" parent="1" vertex="1">
                    <mxGeometry x="-2240" y="450" width="370" height="140" as="geometry"/>
                </mxCell>
                <mxCell id="wh1VDPlwhrJuEoQ05Rx--7" value="+ isLandingZone: bool&lt;br&gt;+ promptCanvas: Canvas&lt;br&gt;+ LevelToLoad: string" style="text;strokeColor=none;fillColor=none;align=left;verticalAlign=top;spacingLeft=4;spacingRight=4;overflow=hidden;rotatable=0;points=[[0,0.5],[1,0.5]];portConstraint=eastwest;whiteSpace=wrap;html=1;rounded=0;" parent="wh1VDPlwhrJuEoQ05Rx--6" vertex="1">
                    <mxGeometry y="30" width="370" height="50" as="geometry"/>
                </mxCell>
                <mxCell id="wh1VDPlwhrJuEoQ05Rx--8" value="" style="line;strokeWidth=1;fillColor=none;align=left;verticalAlign=middle;spacingTop=-1;spacingLeft=3;spacingRight=3;rotatable=0;labelPosition=right;points=[];portConstraint=eastwest;strokeColor=inherit;rounded=0;" parent="wh1VDPlwhrJuEoQ05Rx--6" vertex="1">
                    <mxGeometry y="80" width="370" height="8" as="geometry"/>
                </mxCell>
                <mxCell id="wh1VDPlwhrJuEoQ05Rx--9" value="+ Start(): void&lt;br&gt;+ OnTriggerEnter(Collider): void&lt;br&gt;+ OnTriggerExit(Collider): void" style="text;strokeColor=none;fillColor=none;align=left;verticalAlign=top;spacingLeft=4;spacingRight=4;overflow=hidden;rotatable=0;points=[[0,0.5],[1,0.5]];portConstraint=eastwest;whiteSpace=wrap;html=1;rounded=0;" parent="wh1VDPlwhrJuEoQ05Rx--6" vertex="1">
                    <mxGeometry y="88" width="370" height="52" as="geometry"/>
                </mxCell>
                <mxCell id="wh1VDPlwhrJuEoQ05Rx--10" value="AirObstacle" style="swimlane;fontStyle=1;align=center;verticalAlign=top;childLayout=stackLayout;horizontal=1;startSize=30;horizontalStack=0;resizeParent=1;resizeParentMax=0;resizeLast=0;collapsible=1;marginBottom=0;whiteSpace=wrap;html=1;rounded=0;" parent="1" vertex="1">
                    <mxGeometry x="-2640" y="450" width="190" height="230" as="geometry"/>
                </mxCell>
                <mxCell id="wh1VDPlwhrJuEoQ05Rx--11" value="- degreesPerSecond: float&lt;br&gt;- amplitude: float&lt;br&gt;- frequency: float&lt;br&gt;- speed: float&lt;br&gt;- _timeEnabled: float&lt;br&gt;+ Collect: Action&amp;lt;int&amp;gt;&lt;br&gt;- posOffset: Vector3&lt;br&gt;- tempPos: Vector3&lt;br&gt;- direction: Vector3" style="text;strokeColor=none;fillColor=none;align=left;verticalAlign=top;spacingLeft=4;spacingRight=4;overflow=hidden;rotatable=0;points=[[0,0.5],[1,0.5]];portConstraint=eastwest;whiteSpace=wrap;html=1;rounded=0;" parent="wh1VDPlwhrJuEoQ05Rx--10" vertex="1">
                    <mxGeometry y="30" width="190" height="140" as="geometry"/>
                </mxCell>
                <mxCell id="wh1VDPlwhrJuEoQ05Rx--12" value="" style="line;strokeWidth=1;fillColor=none;align=left;verticalAlign=middle;spacingTop=-1;spacingLeft=3;spacingRight=3;rotatable=0;labelPosition=right;points=[];portConstraint=eastwest;strokeColor=inherit;rounded=0;" parent="wh1VDPlwhrJuEoQ05Rx--10" vertex="1">
                    <mxGeometry y="170" width="190" height="8" as="geometry"/>
                </mxCell>
                <mxCell id="wh1VDPlwhrJuEoQ05Rx--13" value="+ Start(): void&lt;br&gt;+ OnEnable(): void&lt;br&gt;+ FixedUpdate(): void" style="text;strokeColor=none;fillColor=none;align=left;verticalAlign=top;spacingLeft=4;spacingRight=4;overflow=hidden;rotatable=0;points=[[0,0.5],[1,0.5]];portConstraint=eastwest;whiteSpace=wrap;html=1;rounded=0;" parent="wh1VDPlwhrJuEoQ05Rx--10" vertex="1">
                    <mxGeometry y="178" width="190" height="52" as="geometry"/>
                </mxCell>
                <mxCell id="wh1VDPlwhrJuEoQ05Rx--14" value="AudioManager" style="swimlane;fontStyle=1;align=center;verticalAlign=top;childLayout=stackLayout;horizontal=1;startSize=30;horizontalStack=0;resizeParent=1;resizeParentMax=0;resizeLast=0;collapsible=1;marginBottom=0;whiteSpace=wrap;html=1;rounded=0;" parent="1" vertex="1">
                    <mxGeometry x="-2650" y="190" width="220" height="150" as="geometry"/>
                </mxCell>
                <mxCell id="wh1VDPlwhrJuEoQ05Rx--15" value="- &lt;u&gt;_instance&lt;/u&gt;: AudioManager&lt;br&gt;- _audioSource: AudioSource&lt;br&gt;+ &lt;u&gt;Instance&lt;/u&gt;: AudioManager" style="text;strokeColor=none;fillColor=none;align=left;verticalAlign=top;spacingLeft=4;spacingRight=4;overflow=hidden;rotatable=0;points=[[0,0.5],[1,0.5]];portConstraint=eastwest;whiteSpace=wrap;html=1;rounded=0;" parent="wh1VDPlwhrJuEoQ05Rx--14" vertex="1">
                    <mxGeometry y="30" width="220" height="60" as="geometry"/>
                </mxCell>
                <mxCell id="wh1VDPlwhrJuEoQ05Rx--16" value="" style="line;strokeWidth=1;fillColor=none;align=left;verticalAlign=middle;spacingTop=-1;spacingLeft=3;spacingRight=3;rotatable=0;labelPosition=right;points=[];portConstraint=eastwest;strokeColor=inherit;rounded=0;" parent="wh1VDPlwhrJuEoQ05Rx--14" vertex="1">
                    <mxGeometry y="90" width="220" height="8" as="geometry"/>
                </mxCell>
                <mxCell id="wh1VDPlwhrJuEoQ05Rx--17" value="+ Start(): void&lt;br&gt;- Awake(): void&lt;br&gt;+ PlayAudioClip(AudioClip, bool): void" style="text;strokeColor=none;fillColor=none;align=left;verticalAlign=top;spacingLeft=4;spacingRight=4;overflow=hidden;rotatable=0;points=[[0,0.5],[1,0.5]];portConstraint=eastwest;whiteSpace=wrap;html=1;rounded=0;" parent="wh1VDPlwhrJuEoQ05Rx--14" vertex="1">
                    <mxGeometry y="98" width="220" height="52" as="geometry"/>
                </mxCell>
                <mxCell id="39" style="edgeStyle=none;rounded=0;html=1;dashed=1;startArrow=open;startFill=0;endArrow=open;endFill=0;entryX=0.313;entryY=1.007;entryDx=0;entryDy=0;entryPerimeter=0;" edge="1" parent="1" source="wh1VDPlwhrJuEoQ05Rx--18" target="wh1VDPlwhrJuEoQ05Rx--54">
                    <mxGeometry relative="1" as="geometry">
                        <Array as="points">
                            <mxPoint x="-2540" y="-1695"/>
                            <mxPoint x="-2540" y="-1880"/>
                            <mxPoint x="-2460" y="-1880"/>
                        </Array>
                    </mxGeometry>
                </mxCell>
                <mxCell id="wh1VDPlwhrJuEoQ05Rx--18" value="#SphereColor" style="swimlane;fontStyle=1;align=center;verticalAlign=top;childLayout=stackLayout;horizontal=1;startSize=30;horizontalStack=0;resizeParent=1;resizeParentMax=0;resizeLast=0;collapsible=1;marginBottom=0;whiteSpace=wrap;html=1;rounded=0;" parent="1" vertex="1">
                    <mxGeometry x="-2780" y="-1790" width="220" height="190" as="geometry"/>
                </mxCell>
                <mxCell id="wh1VDPlwhrJuEoQ05Rx--19" value="- _closestKey: Key&lt;br&gt;- _collectedKeys: bool&lt;br&gt;- _keys: List&amp;lt;Key&amp;gt;" style="text;strokeColor=none;fillColor=none;align=left;verticalAlign=top;spacingLeft=4;spacingRight=4;overflow=hidden;rotatable=0;points=[[0,0.5],[1,0.5]];portConstraint=eastwest;whiteSpace=wrap;html=1;rounded=0;" parent="wh1VDPlwhrJuEoQ05Rx--18" vertex="1">
                    <mxGeometry y="30" width="220" height="50" as="geometry"/>
                </mxCell>
                <mxCell id="wh1VDPlwhrJuEoQ05Rx--20" value="" style="line;strokeWidth=1;fillColor=none;align=left;verticalAlign=middle;spacingTop=-1;spacingLeft=3;spacingRight=3;rotatable=0;labelPosition=right;points=[];portConstraint=eastwest;strokeColor=inherit;rounded=0;" parent="wh1VDPlwhrJuEoQ05Rx--18" vertex="1">
                    <mxGeometry y="80" width="220" height="8" as="geometry"/>
                </mxCell>
                <mxCell id="wh1VDPlwhrJuEoQ05Rx--21" value="- Start(): void&lt;br&gt;+ UpdateKeys: void&lt;br&gt;+ GetClosestKey: void&lt;br&gt;- FixedUpdate(): void&lt;br&gt;- ChangeColor(): void&lt;br&gt;- KeysWereCollected(): void" style="text;strokeColor=none;fillColor=none;align=left;verticalAlign=top;spacingLeft=4;spacingRight=4;overflow=hidden;rotatable=0;points=[[0,0.5],[1,0.5]];portConstraint=eastwest;whiteSpace=wrap;html=1;rounded=0;" parent="wh1VDPlwhrJuEoQ05Rx--18" vertex="1">
                    <mxGeometry y="88" width="220" height="102" as="geometry"/>
                </mxCell>
                <mxCell id="22" style="edgeStyle=none;rounded=0;html=1;dashed=1;startArrow=none;startFill=0;endArrow=none;endFill=0;" edge="1" parent="1" source="wh1VDPlwhrJuEoQ05Rx--22">
                    <mxGeometry relative="1" as="geometry">
                        <mxPoint x="-2600" y="-2200" as="targetPoint"/>
                        <Array as="points">
                            <mxPoint x="-2670" y="-2200"/>
                        </Array>
                    </mxGeometry>
                </mxCell>
                <mxCell id="38" style="edgeStyle=none;rounded=0;html=1;startArrow=none;startFill=0;endArrow=open;endFill=0;dashed=1;entryX=0.006;entryY=0.574;entryDx=0;entryDy=0;entryPerimeter=0;" edge="1" parent="1" source="wh1VDPlwhrJuEoQ05Rx--22" target="wh1VDPlwhrJuEoQ05Rx--54">
                    <mxGeometry relative="1" as="geometry"/>
                </mxCell>
                <mxCell id="45" style="edgeStyle=none;rounded=0;html=1;startArrow=none;startFill=0;endArrow=diamondThin;endFill=0;exitX=0.269;exitY=1.028;exitDx=0;exitDy=0;exitPerimeter=0;" edge="1" parent="1" source="51" target="EqusiYMp2cIinQoo4IZe-25">
                    <mxGeometry relative="1" as="geometry">
                        <mxPoint x="-2660" y="-2280" as="targetPoint"/>
                        <Array as="points">
                            <mxPoint x="-2650" y="-2220"/>
                            <mxPoint x="-2116" y="-2220"/>
                        </Array>
                    </mxGeometry>
                </mxCell>
                <mxCell id="63" style="edgeStyle=none;rounded=0;html=1;dashed=1;startArrow=none;startFill=0;endArrow=open;endFill=0;exitX=0.916;exitY=-0.011;exitDx=0;exitDy=0;exitPerimeter=0;fillColor=#e51400;strokeColor=#B20000;" edge="1" parent="1" source="wh1VDPlwhrJuEoQ05Rx--22" target="EqusiYMp2cIinQoo4IZe-19">
                    <mxGeometry relative="1" as="geometry">
                        <Array as="points">
                            <mxPoint x="-2580" y="-2140"/>
                        </Array>
                    </mxGeometry>
                </mxCell>
                <mxCell id="wh1VDPlwhrJuEoQ05Rx--22" value="#SanctumEntrance" style="swimlane;fontStyle=1;align=center;verticalAlign=top;childLayout=stackLayout;horizontal=1;startSize=30;horizontalStack=0;resizeParent=1;resizeParentMax=0;resizeLast=0;collapsible=1;marginBottom=0;whiteSpace=wrap;html=1;rounded=0;" parent="1" vertex="1">
                    <mxGeometry x="-2780" y="-2070" width="220" height="240" as="geometry"/>
                </mxCell>
                <mxCell id="wh1VDPlwhrJuEoQ05Rx--23" value="+ NKeysToOpen: int&lt;br&gt;+ PlacedKeys: int&lt;br&gt;- _altars: List&amp;lt;GameObject&amp;gt;&lt;br&gt;- _playerIsNear: bool" style="text;strokeColor=none;fillColor=none;align=left;verticalAlign=top;spacingLeft=4;spacingRight=4;overflow=hidden;rotatable=0;points=[[0,0.5],[1,0.5]];portConstraint=eastwest;whiteSpace=wrap;html=1;rounded=0;" parent="wh1VDPlwhrJuEoQ05Rx--22" vertex="1">
                    <mxGeometry y="30" width="220" height="70" as="geometry"/>
                </mxCell>
                <mxCell id="wh1VDPlwhrJuEoQ05Rx--24" value="" style="line;strokeWidth=1;fillColor=none;align=left;verticalAlign=middle;spacingTop=-1;spacingLeft=3;spacingRight=3;rotatable=0;labelPosition=right;points=[];portConstraint=eastwest;strokeColor=inherit;rounded=0;" parent="wh1VDPlwhrJuEoQ05Rx--22" vertex="1">
                    <mxGeometry y="100" width="220" height="8" as="geometry"/>
                </mxCell>
                <mxCell id="wh1VDPlwhrJuEoQ05Rx--25" value="+ Save(SaveFile): SaveFile&lt;br&gt;+ Load(SaveFile): void&lt;br&gt;+ UpdateKeys(): void&lt;br&gt;+ PlaceKeys(): void&lt;br&gt;- Start(): void&lt;br&gt;- PlaceKey(GameObject): void&lt;br&gt;- OnTriggerEnter(Collider): void&lt;br&gt;- OnTriggerExit(Collider): void" style="text;strokeColor=none;fillColor=none;align=left;verticalAlign=top;spacingLeft=4;spacingRight=4;overflow=hidden;rotatable=0;points=[[0,0.5],[1,0.5]];portConstraint=eastwest;whiteSpace=wrap;html=1;rounded=0;" parent="wh1VDPlwhrJuEoQ05Rx--22" vertex="1">
                    <mxGeometry y="108" width="220" height="132" as="geometry"/>
                </mxCell>
                <mxCell id="61" style="edgeStyle=none;rounded=0;html=1;dashed=1;startArrow=none;startFill=0;endArrow=open;endFill=0;" edge="1" parent="1" source="wh1VDPlwhrJuEoQ05Rx--30" target="W6KYNCeRG4IzSDQAHKKi-18">
                    <mxGeometry relative="1" as="geometry"/>
                </mxCell>
                <mxCell id="wh1VDPlwhrJuEoQ05Rx--30" value="#DeathZone" style="swimlane;fontStyle=1;align=center;verticalAlign=top;childLayout=stackLayout;horizontal=1;startSize=30;horizontalStack=0;resizeParent=1;resizeParentMax=0;resizeLast=0;collapsible=1;marginBottom=0;whiteSpace=wrap;html=1;rounded=0;" parent="1" vertex="1">
                    <mxGeometry x="-1890" y="-2485" width="160" height="60" as="geometry"/>
                </mxCell>
                <mxCell id="wh1VDPlwhrJuEoQ05Rx--33" value="- OnTriggerEnter(Collider)" style="text;strokeColor=none;fillColor=none;align=left;verticalAlign=top;spacingLeft=4;spacingRight=4;overflow=hidden;rotatable=0;points=[[0,0.5],[1,0.5]];portConstraint=eastwest;whiteSpace=wrap;html=1;rounded=0;" parent="wh1VDPlwhrJuEoQ05Rx--30" vertex="1">
                    <mxGeometry y="30" width="160" height="30" as="geometry"/>
                </mxCell>
                <mxCell id="24" style="edgeStyle=none;rounded=0;html=1;dashed=1;startArrow=none;startFill=0;endArrow=none;endFill=0;" edge="1" parent="1" source="wh1VDPlwhrJuEoQ05Rx--43">
                    <mxGeometry relative="1" as="geometry">
                        <mxPoint x="-2230" y="-2200" as="targetPoint"/>
                    </mxGeometry>
                </mxCell>
                <mxCell id="47" style="edgeStyle=none;rounded=0;html=1;startArrow=none;startFill=0;endArrow=none;endFill=0;exitX=0.598;exitY=-0.01;exitDx=0;exitDy=0;exitPerimeter=0;" edge="1" parent="1" source="wh1VDPlwhrJuEoQ05Rx--43">
                    <mxGeometry relative="1" as="geometry">
                        <mxPoint x="-2216" y="-2220" as="targetPoint"/>
                    </mxGeometry>
                </mxCell>
                <mxCell id="64" style="edgeStyle=none;rounded=0;html=1;dashed=1;startArrow=none;startFill=0;endArrow=open;endFill=0;exitX=0.854;exitY=-0.019;exitDx=0;exitDy=0;exitPerimeter=0;entryX=-0.002;entryY=0.662;entryDx=0;entryDy=0;entryPerimeter=0;fillColor=#e51400;strokeColor=#B20000;" edge="1" parent="1" source="wh1VDPlwhrJuEoQ05Rx--43" target="EqusiYMp2cIinQoo4IZe-19">
                    <mxGeometry relative="1" as="geometry">
                        <mxPoint x="-2100" y="-2120" as="targetPoint"/>
                        <Array as="points">
                            <mxPoint x="-2180" y="-2118"/>
                        </Array>
                    </mxGeometry>
                </mxCell>
                <mxCell id="wh1VDPlwhrJuEoQ05Rx--43" value="#LeverManager" style="swimlane;fontStyle=1;align=center;verticalAlign=top;childLayout=stackLayout;horizontal=1;startSize=30;horizontalStack=0;resizeParent=1;resizeParentMax=0;resizeLast=0;collapsible=1;marginBottom=0;whiteSpace=wrap;html=1;rounded=0;" parent="1" vertex="1">
                    <mxGeometry x="-2300" y="-2070" width="140" height="92" as="geometry"/>
                </mxCell>
                <mxCell id="wh1VDPlwhrJuEoQ05Rx--46" value="+ Load(SaveFile): void&lt;br&gt;+ UpdateLevers(): void&lt;br&gt;- Start(): void" style="text;strokeColor=none;fillColor=none;align=left;verticalAlign=top;spacingLeft=4;spacingRight=4;overflow=hidden;rotatable=0;points=[[0,0.5],[1,0.5]];portConstraint=eastwest;whiteSpace=wrap;html=1;rounded=0;" parent="wh1VDPlwhrJuEoQ05Rx--43" vertex="1">
                    <mxGeometry y="30" width="140" height="62" as="geometry"/>
                </mxCell>
                <mxCell id="k_uUMt3e5FIYH3u3VzYH-19" style="edgeStyle=orthogonalEdgeStyle;rounded=0;orthogonalLoop=1;jettySize=auto;html=1;endArrow=diamondThin;endFill=1;" parent="1" source="wh1VDPlwhrJuEoQ05Rx--47" target="wh1VDPlwhrJuEoQ05Rx--43" edge="1">
                    <mxGeometry relative="1" as="geometry"/>
                </mxCell>
                <mxCell id="wh1VDPlwhrJuEoQ05Rx--47" value="#Lever" style="swimlane;fontStyle=1;align=center;verticalAlign=top;childLayout=stackLayout;horizontal=1;startSize=30;horizontalStack=0;resizeParent=1;resizeParentMax=0;resizeLast=0;collapsible=1;marginBottom=0;whiteSpace=wrap;html=1;rounded=0;" parent="1" vertex="1">
                    <mxGeometry x="-2325" y="-1942.5" width="190" height="180" as="geometry"/>
                </mxCell>
                <mxCell id="wh1VDPlwhrJuEoQ05Rx--48" value="+ ID: int&lt;br&gt;+ IsActivated: bool&lt;br&gt;+ DoorOpened: bool&lt;br&gt;- _playerIsNear: bool" style="text;strokeColor=none;fillColor=none;align=left;verticalAlign=top;spacingLeft=4;spacingRight=4;overflow=hidden;rotatable=0;points=[[0,0.5],[1,0.5]];portConstraint=eastwest;whiteSpace=wrap;html=1;rounded=0;" parent="wh1VDPlwhrJuEoQ05Rx--47" vertex="1">
                    <mxGeometry y="30" width="190" height="70" as="geometry"/>
                </mxCell>
                <mxCell id="wh1VDPlwhrJuEoQ05Rx--49" value="" style="line;strokeWidth=1;fillColor=none;align=left;verticalAlign=middle;spacingTop=-1;spacingLeft=3;spacingRight=3;rotatable=0;labelPosition=right;points=[];portConstraint=eastwest;strokeColor=inherit;rounded=0;" parent="wh1VDPlwhrJuEoQ05Rx--47" vertex="1">
                    <mxGeometry y="100" width="190" height="8" as="geometry"/>
                </mxCell>
                <mxCell id="wh1VDPlwhrJuEoQ05Rx--50" value="- Start(): void&lt;br&gt;- Activate(): void&lt;br&gt;- OnTriggerEnter(Collider): void&lt;br&gt;- OnTriggerExit(Collider): void" style="text;strokeColor=none;fillColor=none;align=left;verticalAlign=top;spacingLeft=4;spacingRight=4;overflow=hidden;rotatable=0;points=[[0,0.5],[1,0.5]];portConstraint=eastwest;whiteSpace=wrap;html=1;rounded=0;" parent="wh1VDPlwhrJuEoQ05Rx--47" vertex="1">
                    <mxGeometry y="108" width="190" height="72" as="geometry"/>
                </mxCell>
                <mxCell id="23" style="edgeStyle=none;rounded=0;html=1;dashed=1;startArrow=none;startFill=0;endArrow=none;endFill=0;" edge="1" parent="1" source="wh1VDPlwhrJuEoQ05Rx--51">
                    <mxGeometry relative="1" as="geometry">
                        <mxPoint x="-2430" y="-2200" as="targetPoint"/>
                    </mxGeometry>
                </mxCell>
                <mxCell id="46" style="edgeStyle=none;rounded=0;html=1;startArrow=none;startFill=0;endArrow=none;endFill=0;exitX=0.603;exitY=-0.004;exitDx=0;exitDy=0;exitPerimeter=0;" edge="1" parent="1" source="wh1VDPlwhrJuEoQ05Rx--51">
                    <mxGeometry relative="1" as="geometry">
                        <mxPoint x="-2414" y="-2220" as="targetPoint"/>
                    </mxGeometry>
                </mxCell>
                <mxCell id="wh1VDPlwhrJuEoQ05Rx--51" value="#KeyManager" style="swimlane;fontStyle=1;align=center;verticalAlign=top;childLayout=stackLayout;horizontal=1;startSize=30;horizontalStack=0;resizeParent=1;resizeParentMax=0;resizeLast=0;collapsible=1;marginBottom=0;whiteSpace=wrap;html=1;rounded=0;" parent="1" vertex="1">
                    <mxGeometry x="-2510" y="-2070" width="160" height="150" as="geometry"/>
                </mxCell>
                <mxCell id="wh1VDPlwhrJuEoQ05Rx--52" value="+ Keys: List&amp;lt;Key&amp;gt;&lt;br&gt;+ CollectedKeys: int" style="text;strokeColor=none;fillColor=none;align=left;verticalAlign=top;spacingLeft=4;spacingRight=4;overflow=hidden;rotatable=0;points=[[0,0.5],[1,0.5]];portConstraint=eastwest;whiteSpace=wrap;html=1;rounded=0;" parent="wh1VDPlwhrJuEoQ05Rx--51" vertex="1">
                    <mxGeometry y="30" width="160" height="40" as="geometry"/>
                </mxCell>
                <mxCell id="wh1VDPlwhrJuEoQ05Rx--53" value="" style="line;strokeWidth=1;fillColor=none;align=left;verticalAlign=middle;spacingTop=-1;spacingLeft=3;spacingRight=3;rotatable=0;labelPosition=right;points=[];portConstraint=eastwest;strokeColor=inherit;rounded=0;" parent="wh1VDPlwhrJuEoQ05Rx--51" vertex="1">
                    <mxGeometry y="70" width="160" height="8" as="geometry"/>
                </mxCell>
                <mxCell id="wh1VDPlwhrJuEoQ05Rx--54" value="+ Save(SaveFile): SaveFile&lt;br&gt;+ Load(SaveFile): void&lt;br&gt;+ UpdateKeys(): void&lt;br&gt;- Start(): void" style="text;strokeColor=none;fillColor=none;align=left;verticalAlign=top;spacingLeft=4;spacingRight=4;overflow=hidden;rotatable=0;points=[[0,0.5],[1,0.5]];portConstraint=eastwest;whiteSpace=wrap;html=1;rounded=0;" parent="wh1VDPlwhrJuEoQ05Rx--51" vertex="1">
                    <mxGeometry y="78" width="160" height="72" as="geometry"/>
                </mxCell>
                <mxCell id="35" style="edgeStyle=none;rounded=0;html=1;startArrow=none;startFill=0;endArrow=diamondThin;endFill=1;" edge="1" parent="1" source="wh1VDPlwhrJuEoQ05Rx--55" target="wh1VDPlwhrJuEoQ05Rx--54">
                    <mxGeometry relative="1" as="geometry"/>
                </mxCell>
                <mxCell id="wh1VDPlwhrJuEoQ05Rx--55" value="#Key" style="swimlane;fontStyle=1;align=center;verticalAlign=top;childLayout=stackLayout;horizontal=1;startSize=30;horizontalStack=0;resizeParent=1;resizeParentMax=0;resizeLast=0;collapsible=1;marginBottom=0;whiteSpace=wrap;html=1;rounded=0;" parent="1" vertex="1">
                    <mxGeometry x="-2520" y="-1850" width="180" height="110" as="geometry"/>
                </mxCell>
                <mxCell id="wh1VDPlwhrJuEoQ05Rx--56" value="+ KeyManager: KeyManager&lt;br&gt;+ Collected: bool" style="text;strokeColor=none;fillColor=none;align=left;verticalAlign=top;spacingLeft=4;spacingRight=4;overflow=hidden;rotatable=0;points=[[0,0.5],[1,0.5]];portConstraint=eastwest;whiteSpace=wrap;html=1;rounded=0;" parent="wh1VDPlwhrJuEoQ05Rx--55" vertex="1">
                    <mxGeometry y="30" width="180" height="40" as="geometry"/>
                </mxCell>
                <mxCell id="wh1VDPlwhrJuEoQ05Rx--57" value="" style="line;strokeWidth=1;fillColor=none;align=left;verticalAlign=middle;spacingTop=-1;spacingLeft=3;spacingRight=3;rotatable=0;labelPosition=right;points=[];portConstraint=eastwest;strokeColor=inherit;rounded=0;" parent="wh1VDPlwhrJuEoQ05Rx--55" vertex="1">
                    <mxGeometry y="70" width="180" height="8" as="geometry"/>
                </mxCell>
                <mxCell id="wh1VDPlwhrJuEoQ05Rx--58" value="+ Collect(): void" style="text;strokeColor=none;fillColor=none;align=left;verticalAlign=top;spacingLeft=4;spacingRight=4;overflow=hidden;rotatable=0;points=[[0,0.5],[1,0.5]];portConstraint=eastwest;whiteSpace=wrap;html=1;rounded=0;" parent="wh1VDPlwhrJuEoQ05Rx--55" vertex="1">
                    <mxGeometry y="78" width="180" height="32" as="geometry"/>
                </mxCell>
                <mxCell id="40" style="edgeStyle=none;rounded=0;html=1;startArrow=none;startFill=0;endArrow=block;endFill=0;" edge="1" parent="1" source="wh1VDPlwhrJuEoQ05Rx--59" target="wh1VDPlwhrJuEoQ05Rx--58">
                    <mxGeometry relative="1" as="geometry"/>
                </mxCell>
                <mxCell id="wh1VDPlwhrJuEoQ05Rx--59" value="#MainKey" style="swimlane;fontStyle=1;align=center;verticalAlign=top;childLayout=stackLayout;horizontal=1;startSize=30;horizontalStack=0;resizeParent=1;resizeParentMax=0;resizeLast=0;collapsible=1;marginBottom=0;whiteSpace=wrap;html=1;rounded=0;" parent="1" vertex="1">
                    <mxGeometry x="-2520" y="-1689.5" width="180" height="170" as="geometry"/>
                </mxCell>
                <mxCell id="wh1VDPlwhrJuEoQ05Rx--60" value="- degreesPerSecond: float&lt;br&gt;- amplitude: float&lt;br&gt;- frequency: float&lt;br&gt;- posOffset: Vector3&lt;br&gt;- tempPos: Vector3" style="text;strokeColor=none;fillColor=none;align=left;verticalAlign=top;spacingLeft=4;spacingRight=4;overflow=hidden;rotatable=0;points=[[0,0.5],[1,0.5]];portConstraint=eastwest;whiteSpace=wrap;html=1;rounded=0;" parent="wh1VDPlwhrJuEoQ05Rx--59" vertex="1">
                    <mxGeometry y="30" width="180" height="80" as="geometry"/>
                </mxCell>
                <mxCell id="wh1VDPlwhrJuEoQ05Rx--61" value="" style="line;strokeWidth=1;fillColor=none;align=left;verticalAlign=middle;spacingTop=-1;spacingLeft=3;spacingRight=3;rotatable=0;labelPosition=right;points=[];portConstraint=eastwest;strokeColor=inherit;rounded=0;" parent="wh1VDPlwhrJuEoQ05Rx--59" vertex="1">
                    <mxGeometry y="110" width="180" height="8" as="geometry"/>
                </mxCell>
                <mxCell id="wh1VDPlwhrJuEoQ05Rx--62" value="- Start(): void&lt;br&gt;- OnTriggerEnter(Collider): void&lt;br&gt;- FixedUpdate(): void" style="text;strokeColor=none;fillColor=none;align=left;verticalAlign=top;spacingLeft=4;spacingRight=4;overflow=hidden;rotatable=0;points=[[0,0.5],[1,0.5]];portConstraint=eastwest;whiteSpace=wrap;html=1;rounded=0;" parent="wh1VDPlwhrJuEoQ05Rx--59" vertex="1">
                    <mxGeometry y="118" width="180" height="52" as="geometry"/>
                </mxCell>
                <mxCell id="25" style="edgeStyle=none;rounded=0;html=1;dashed=1;startArrow=none;startFill=0;endArrow=none;endFill=0;" edge="1" parent="1" source="wh1VDPlwhrJuEoQ05Rx--63">
                    <mxGeometry relative="1" as="geometry">
                        <mxPoint x="-2035" y="-2200" as="targetPoint"/>
                    </mxGeometry>
                </mxCell>
                <mxCell id="49" style="edgeStyle=none;rounded=0;html=1;startArrow=none;startFill=0;endArrow=none;endFill=0;exitX=0.593;exitY=-0.008;exitDx=0;exitDy=0;exitPerimeter=0;" edge="1" parent="1" source="wh1VDPlwhrJuEoQ05Rx--63">
                    <mxGeometry relative="1" as="geometry">
                        <mxPoint x="-2020" y="-2220" as="targetPoint"/>
                    </mxGeometry>
                </mxCell>
                <mxCell id="wh1VDPlwhrJuEoQ05Rx--63" value="#DoorManager" style="swimlane;fontStyle=1;align=center;verticalAlign=top;childLayout=stackLayout;horizontal=1;startSize=30;horizontalStack=0;resizeParent=1;resizeParentMax=0;resizeLast=0;collapsible=1;marginBottom=0;whiteSpace=wrap;html=1;rounded=0;" parent="1" vertex="1">
                    <mxGeometry x="-2115" y="-2070" width="160" height="120" as="geometry"/>
                </mxCell>
                <mxCell id="wh1VDPlwhrJuEoQ05Rx--64" value="+ Doors: List&amp;lt;IDoor&amp;gt;&lt;br&gt;" style="text;strokeColor=none;fillColor=none;align=left;verticalAlign=top;spacingLeft=4;spacingRight=4;overflow=hidden;rotatable=0;points=[[0,0.5],[1,0.5]];portConstraint=eastwest;whiteSpace=wrap;html=1;rounded=0;" parent="wh1VDPlwhrJuEoQ05Rx--63" vertex="1">
                    <mxGeometry y="30" width="160" height="30" as="geometry"/>
                </mxCell>
                <mxCell id="wh1VDPlwhrJuEoQ05Rx--65" value="" style="line;strokeWidth=1;fillColor=none;align=left;verticalAlign=middle;spacingTop=-1;spacingLeft=3;spacingRight=3;rotatable=0;labelPosition=right;points=[];portConstraint=eastwest;strokeColor=inherit;rounded=0;" parent="wh1VDPlwhrJuEoQ05Rx--63" vertex="1">
                    <mxGeometry y="60" width="160" height="8" as="geometry"/>
                </mxCell>
                <mxCell id="wh1VDPlwhrJuEoQ05Rx--66" value="+ Save(SaveFile): SaveFile&lt;br&gt;+ Load(SaveFile): void&lt;br&gt;- Start(): void" style="text;strokeColor=none;fillColor=none;align=left;verticalAlign=top;spacingLeft=4;spacingRight=4;overflow=hidden;rotatable=0;points=[[0,0.5],[1,0.5]];portConstraint=eastwest;whiteSpace=wrap;html=1;rounded=0;" parent="wh1VDPlwhrJuEoQ05Rx--63" vertex="1">
                    <mxGeometry y="68" width="160" height="52" as="geometry"/>
                </mxCell>
                <mxCell id="32" style="edgeStyle=none;rounded=0;html=1;startArrow=none;startFill=0;endArrow=diamondThin;endFill=1;" edge="1" parent="1" source="wh1VDPlwhrJuEoQ05Rx--67" target="wh1VDPlwhrJuEoQ05Rx--66">
                    <mxGeometry relative="1" as="geometry"/>
                </mxCell>
                <mxCell id="wh1VDPlwhrJuEoQ05Rx--67" value="#IDoor" style="swimlane;fontStyle=1;align=center;verticalAlign=top;childLayout=stackLayout;horizontal=1;startSize=30;horizontalStack=0;resizeParent=1;resizeParentMax=0;resizeLast=0;collapsible=1;marginBottom=0;whiteSpace=wrap;html=1;rounded=0;" parent="1" vertex="1">
                    <mxGeometry x="-2155" y="-1720" width="240" height="82" as="geometry"/>
                </mxCell>
                <mxCell id="wh1VDPlwhrJuEoQ05Rx--70" value="+ Open(): void&lt;br&gt;+ IsOpen(): bool&lt;br&gt;+ SetDoorManager(DoorManager): void" style="text;strokeColor=none;fillColor=none;align=left;verticalAlign=top;spacingLeft=4;spacingRight=4;overflow=hidden;rotatable=0;points=[[0,0.5],[1,0.5]];portConstraint=eastwest;whiteSpace=wrap;html=1;rounded=0;" parent="wh1VDPlwhrJuEoQ05Rx--67" vertex="1">
                    <mxGeometry y="30" width="240" height="52" as="geometry"/>
                </mxCell>
                <mxCell id="26" style="edgeStyle=none;rounded=0;html=1;dashed=1;startArrow=none;startFill=0;endArrow=none;endFill=0;" edge="1" parent="1" source="wh1VDPlwhrJuEoQ05Rx--71">
                    <mxGeometry relative="1" as="geometry">
                        <mxPoint x="-1830" y="-2200" as="targetPoint"/>
                    </mxGeometry>
                </mxCell>
                <mxCell id="50" style="edgeStyle=none;rounded=0;html=1;startArrow=none;startFill=0;endArrow=none;endFill=0;exitX=0.607;exitY=-0.008;exitDx=0;exitDy=0;exitPerimeter=0;" edge="1" parent="1" source="wh1VDPlwhrJuEoQ05Rx--71">
                    <mxGeometry relative="1" as="geometry">
                        <mxPoint x="-1810" y="-2220" as="targetPoint"/>
                    </mxGeometry>
                </mxCell>
                <mxCell id="wh1VDPlwhrJuEoQ05Rx--71" value="#CheckpointManager" style="swimlane;fontStyle=1;align=center;verticalAlign=top;childLayout=stackLayout;horizontal=1;startSize=30;horizontalStack=0;resizeParent=1;resizeParentMax=0;resizeLast=0;collapsible=1;marginBottom=0;whiteSpace=wrap;html=1;rounded=0;" parent="1" vertex="1">
                    <mxGeometry x="-1920" y="-2070" width="180" height="110" as="geometry"/>
                </mxCell>
                <mxCell id="wh1VDPlwhrJuEoQ05Rx--72" value="+ CurrentCheckpoint: Vector3" style="text;strokeColor=none;fillColor=none;align=left;verticalAlign=top;spacingLeft=4;spacingRight=4;overflow=hidden;rotatable=0;points=[[0,0.5],[1,0.5]];portConstraint=eastwest;whiteSpace=wrap;html=1;rounded=0;" parent="wh1VDPlwhrJuEoQ05Rx--71" vertex="1">
                    <mxGeometry y="30" width="180" height="30" as="geometry"/>
                </mxCell>
                <mxCell id="wh1VDPlwhrJuEoQ05Rx--73" value="" style="line;strokeWidth=1;fillColor=none;align=left;verticalAlign=middle;spacingTop=-1;spacingLeft=3;spacingRight=3;rotatable=0;labelPosition=right;points=[];portConstraint=eastwest;strokeColor=inherit;rounded=0;" parent="wh1VDPlwhrJuEoQ05Rx--71" vertex="1">
                    <mxGeometry y="60" width="180" height="8" as="geometry"/>
                </mxCell>
                <mxCell id="wh1VDPlwhrJuEoQ05Rx--74" value="+ Save(SaveFile): SaveFile&lt;br&gt;+ Load(SaveFile): void&lt;br&gt;" style="text;strokeColor=none;fillColor=none;align=left;verticalAlign=top;spacingLeft=4;spacingRight=4;overflow=hidden;rotatable=0;points=[[0,0.5],[1,0.5]];portConstraint=eastwest;whiteSpace=wrap;html=1;rounded=0;" parent="wh1VDPlwhrJuEoQ05Rx--71" vertex="1">
                    <mxGeometry y="68" width="180" height="42" as="geometry"/>
                </mxCell>
                <mxCell id="29" style="edgeStyle=none;rounded=0;html=1;entryX=0.499;entryY=0.983;entryDx=0;entryDy=0;entryPerimeter=0;startArrow=none;startFill=0;endArrow=diamondThin;endFill=1;" edge="1" parent="1" source="wh1VDPlwhrJuEoQ05Rx--75" target="wh1VDPlwhrJuEoQ05Rx--74">
                    <mxGeometry relative="1" as="geometry"/>
                </mxCell>
                <mxCell id="wh1VDPlwhrJuEoQ05Rx--75" value="#Checkpoint" style="swimlane;fontStyle=1;align=center;verticalAlign=top;childLayout=stackLayout;horizontal=1;startSize=30;horizontalStack=0;resizeParent=1;resizeParentMax=0;resizeLast=0;collapsible=1;marginBottom=0;whiteSpace=wrap;html=1;rounded=0;" parent="1" vertex="1">
                    <mxGeometry x="-1920" y="-1892.5" width="180" height="100" as="geometry"/>
                </mxCell>
                <mxCell id="wh1VDPlwhrJuEoQ05Rx--76" value="+ RespawnPosition: Transform" style="text;strokeColor=none;fillColor=none;align=left;verticalAlign=top;spacingLeft=4;spacingRight=4;overflow=hidden;rotatable=0;points=[[0,0.5],[1,0.5]];portConstraint=eastwest;whiteSpace=wrap;html=1;rounded=0;" parent="wh1VDPlwhrJuEoQ05Rx--75" vertex="1">
                    <mxGeometry y="30" width="180" height="30" as="geometry"/>
                </mxCell>
                <mxCell id="wh1VDPlwhrJuEoQ05Rx--77" value="" style="line;strokeWidth=1;fillColor=none;align=left;verticalAlign=middle;spacingTop=-1;spacingLeft=3;spacingRight=3;rotatable=0;labelPosition=right;points=[];portConstraint=eastwest;strokeColor=inherit;rounded=0;" parent="wh1VDPlwhrJuEoQ05Rx--75" vertex="1">
                    <mxGeometry y="60" width="180" height="8" as="geometry"/>
                </mxCell>
                <mxCell id="wh1VDPlwhrJuEoQ05Rx--78" value="- OnTriggerEnter(Collider): void" style="text;strokeColor=none;fillColor=none;align=left;verticalAlign=top;spacingLeft=4;spacingRight=4;overflow=hidden;rotatable=0;points=[[0,0.5],[1,0.5]];portConstraint=eastwest;whiteSpace=wrap;html=1;rounded=0;" parent="wh1VDPlwhrJuEoQ05Rx--75" vertex="1">
                    <mxGeometry y="68" width="180" height="32" as="geometry"/>
                </mxCell>
                <mxCell id="wh1VDPlwhrJuEoQ05Rx--79" value="Unused/WIP" style="text;html=1;align=center;verticalAlign=middle;resizable=0;points=[];autosize=1;strokeColor=none;fillColor=none;perimeterSpacing=1;fontSize=20;rounded=0;" parent="1" vertex="1">
                    <mxGeometry x="-3390" y="-630" width="140" height="40" as="geometry"/>
                </mxCell>
                <mxCell id="wh1VDPlwhrJuEoQ05Rx--84" value="FloatUtils" style="swimlane;fontStyle=1;align=center;verticalAlign=top;childLayout=stackLayout;horizontal=1;startSize=30;horizontalStack=0;resizeParent=1;resizeParentMax=0;resizeLast=0;collapsible=1;marginBottom=0;whiteSpace=wrap;html=1;rounded=0;" parent="1" vertex="1">
                    <mxGeometry x="-2790" y="750" width="180" height="60" as="geometry"/>
                </mxCell>
                <mxCell id="wh1VDPlwhrJuEoQ05Rx--85" value="+ &lt;u&gt;Intensify(float, float)&lt;/u&gt;: float" style="text;strokeColor=none;fillColor=none;align=left;verticalAlign=top;spacingLeft=4;spacingRight=4;overflow=hidden;rotatable=0;points=[[0,0.5],[1,0.5]];portConstraint=eastwest;whiteSpace=wrap;html=1;rounded=0;" parent="wh1VDPlwhrJuEoQ05Rx--84" vertex="1">
                    <mxGeometry y="30" width="180" height="30" as="geometry"/>
                </mxCell>
                <mxCell id="wh1VDPlwhrJuEoQ05Rx--88" value="HorizontalProjectionExtension" style="swimlane;fontStyle=1;align=center;verticalAlign=top;childLayout=stackLayout;horizontal=1;startSize=30;horizontalStack=0;resizeParent=1;resizeParentMax=0;resizeLast=0;collapsible=1;marginBottom=0;whiteSpace=wrap;html=1;rounded=0;" parent="1" vertex="1">
                    <mxGeometry x="-2790" y="830" width="240" height="60" as="geometry"/>
                </mxCell>
                <mxCell id="wh1VDPlwhrJuEoQ05Rx--89" value="+ &lt;u&gt;HorizontalProjection(Vector3)&lt;/u&gt;: Vector3" style="text;strokeColor=none;fillColor=none;align=left;verticalAlign=top;spacingLeft=4;spacingRight=4;overflow=hidden;rotatable=0;points=[[0,0.5],[1,0.5]];portConstraint=eastwest;whiteSpace=wrap;html=1;rounded=0;" parent="wh1VDPlwhrJuEoQ05Rx--88" vertex="1">
                    <mxGeometry y="30" width="240" height="30" as="geometry"/>
                </mxCell>
                <mxCell id="wh1VDPlwhrJuEoQ05Rx--90" value="LayerMaskUtils" style="swimlane;fontStyle=1;align=center;verticalAlign=top;childLayout=stackLayout;horizontal=1;startSize=30;horizontalStack=0;resizeParent=1;resizeParentMax=0;resizeLast=0;collapsible=1;marginBottom=0;whiteSpace=wrap;html=1;rounded=0;" parent="1" vertex="1">
                    <mxGeometry x="-2790" y="930" width="190" height="60" as="geometry"/>
                </mxCell>
                <mxCell id="wh1VDPlwhrJuEoQ05Rx--91" value="+ &lt;u&gt;HasLayer(LayerMask, int)&lt;/u&gt;: bool" style="text;strokeColor=none;fillColor=none;align=left;verticalAlign=top;spacingLeft=4;spacingRight=4;overflow=hidden;rotatable=0;points=[[0,0.5],[1,0.5]];portConstraint=eastwest;whiteSpace=wrap;html=1;rounded=0;" parent="wh1VDPlwhrJuEoQ05Rx--90" vertex="1">
                    <mxGeometry y="30" width="190" height="30" as="geometry"/>
                </mxCell>
                <mxCell id="wh1VDPlwhrJuEoQ05Rx--92" value="Vector3Utils" style="swimlane;fontStyle=1;align=center;verticalAlign=top;childLayout=stackLayout;horizontal=1;startSize=30;horizontalStack=0;resizeParent=1;resizeParentMax=0;resizeLast=0;collapsible=1;marginBottom=0;whiteSpace=wrap;html=1;rounded=0;" parent="1" vertex="1">
                    <mxGeometry x="-2790" y="1020" width="150" height="60" as="geometry"/>
                </mxCell>
                <mxCell id="wh1VDPlwhrJuEoQ05Rx--93" value="+ &lt;u&gt;Sign(Vector3)&lt;/u&gt;: Vector3" style="text;strokeColor=none;fillColor=none;align=left;verticalAlign=top;spacingLeft=4;spacingRight=4;overflow=hidden;rotatable=0;points=[[0,0.5],[1,0.5]];portConstraint=eastwest;whiteSpace=wrap;html=1;rounded=0;" parent="wh1VDPlwhrJuEoQ05Rx--92" vertex="1">
                    <mxGeometry y="30" width="150" height="30" as="geometry"/>
                </mxCell>
                <mxCell id="wh1VDPlwhrJuEoQ05Rx--97" value="ReadOnlyInspectorAttribute" style="swimlane;fontStyle=1;align=center;verticalAlign=top;childLayout=stackLayout;horizontal=1;startSize=60;horizontalStack=0;resizeParent=1;resizeParentMax=0;resizeLast=0;collapsible=1;marginBottom=0;whiteSpace=wrap;html=1;rounded=0;" parent="1" vertex="1">
                    <mxGeometry x="-3030" y="-430" width="170" height="30" as="geometry"/>
                </mxCell>
                <mxCell id="wh1VDPlwhrJuEoQ05Rx--98" value="ReadOnlyInspectorDrawer" style="swimlane;fontStyle=1;align=center;verticalAlign=top;childLayout=stackLayout;horizontal=1;startSize=30;horizontalStack=0;resizeParent=1;resizeParentMax=0;resizeLast=0;collapsible=1;marginBottom=0;whiteSpace=wrap;html=1;rounded=0;" parent="1" vertex="1">
                    <mxGeometry x="-2520" y="960" width="330" height="70" as="geometry"/>
                </mxCell>
                <mxCell id="wh1VDPlwhrJuEoQ05Rx--99" value="+ GetPropertyHeight(SerializedProperty, GUIContent): float&lt;br&gt;+ OnGUI(Rect, SerializedProperty, GUIContent): void" style="text;strokeColor=none;fillColor=none;align=left;verticalAlign=top;spacingLeft=4;spacingRight=4;overflow=hidden;rotatable=0;points=[[0,0.5],[1,0.5]];portConstraint=eastwest;whiteSpace=wrap;html=1;rounded=0;" parent="wh1VDPlwhrJuEoQ05Rx--98" vertex="1">
                    <mxGeometry y="30" width="330" height="40" as="geometry"/>
                </mxCell>
                <mxCell id="wh1VDPlwhrJuEoQ05Rx--102" value="LoadPrefs" style="swimlane;fontStyle=1;align=center;verticalAlign=top;childLayout=stackLayout;horizontal=1;startSize=30;horizontalStack=0;resizeParent=1;resizeParentMax=0;resizeLast=0;collapsible=1;marginBottom=0;whiteSpace=wrap;html=1;rounded=0;" parent="1" vertex="1">
                    <mxGeometry x="-2080" y="700" width="220" height="240" as="geometry"/>
                </mxCell>
                <mxCell id="wh1VDPlwhrJuEoQ05Rx--103" value="- canUse: bool&lt;br&gt;- menuController: MainMenuController&lt;br&gt;- volumentTextValue: Text&lt;br&gt;- volumeSlider: Slider&lt;br&gt;- brightnessTextValue: Text&lt;br&gt;- brightnessSlider: Slider&lt;br&gt;- _qualityDropDown: Dropdown&lt;br&gt;- fullScreenToogle: Toggle&lt;br&gt;- controllerSentTextValue: Text&lt;br&gt;- controllerSenSlider: Slider&lt;br&gt;- invertYToggle: Toggle" style="text;strokeColor=none;fillColor=none;align=left;verticalAlign=top;spacingLeft=4;spacingRight=4;overflow=hidden;rotatable=0;points=[[0,0.5],[1,0.5]];portConstraint=eastwest;whiteSpace=wrap;html=1;rounded=0;" parent="wh1VDPlwhrJuEoQ05Rx--102" vertex="1">
                    <mxGeometry y="30" width="220" height="170" as="geometry"/>
                </mxCell>
                <mxCell id="wh1VDPlwhrJuEoQ05Rx--104" value="" style="line;strokeWidth=1;fillColor=none;align=left;verticalAlign=middle;spacingTop=-1;spacingLeft=3;spacingRight=3;rotatable=0;labelPosition=right;points=[];portConstraint=eastwest;strokeColor=inherit;rounded=0;" parent="wh1VDPlwhrJuEoQ05Rx--102" vertex="1">
                    <mxGeometry y="200" width="220" height="8" as="geometry"/>
                </mxCell>
                <mxCell id="wh1VDPlwhrJuEoQ05Rx--105" value="- Awake: void&lt;br&gt;" style="text;strokeColor=none;fillColor=none;align=left;verticalAlign=top;spacingLeft=4;spacingRight=4;overflow=hidden;rotatable=0;points=[[0,0.5],[1,0.5]];portConstraint=eastwest;whiteSpace=wrap;html=1;rounded=0;" parent="wh1VDPlwhrJuEoQ05Rx--102" vertex="1">
                    <mxGeometry y="208" width="220" height="32" as="geometry"/>
                </mxCell>
                <mxCell id="wh1VDPlwhrJuEoQ05Rx--106" value="MainMenuBackgroundManager" style="swimlane;fontStyle=1;align=center;verticalAlign=top;childLayout=stackLayout;horizontal=1;startSize=30;horizontalStack=0;resizeParent=1;resizeParentMax=0;resizeLast=0;collapsible=1;marginBottom=0;whiteSpace=wrap;html=1;rounded=0;" parent="1" vertex="1">
                    <mxGeometry x="-1820" y="700" width="270" height="100" as="geometry"/>
                </mxCell>
                <mxCell id="wh1VDPlwhrJuEoQ05Rx--107" value="+ parallaxComponents: ParallaxComponent[]" style="text;strokeColor=none;fillColor=none;align=left;verticalAlign=top;spacingLeft=4;spacingRight=4;overflow=hidden;rotatable=0;points=[[0,0.5],[1,0.5]];portConstraint=eastwest;whiteSpace=wrap;html=1;rounded=0;" parent="wh1VDPlwhrJuEoQ05Rx--106" vertex="1">
                    <mxGeometry y="30" width="270" height="30" as="geometry"/>
                </mxCell>
                <mxCell id="wh1VDPlwhrJuEoQ05Rx--108" value="" style="line;strokeWidth=1;fillColor=none;align=left;verticalAlign=middle;spacingTop=-1;spacingLeft=3;spacingRight=3;rotatable=0;labelPosition=right;points=[];portConstraint=eastwest;strokeColor=inherit;rounded=0;" parent="wh1VDPlwhrJuEoQ05Rx--106" vertex="1">
                    <mxGeometry y="60" width="270" height="8" as="geometry"/>
                </mxCell>
                <mxCell id="wh1VDPlwhrJuEoQ05Rx--109" value="- FixedUpdate(): void" style="text;strokeColor=none;fillColor=none;align=left;verticalAlign=top;spacingLeft=4;spacingRight=4;overflow=hidden;rotatable=0;points=[[0,0.5],[1,0.5]];portConstraint=eastwest;whiteSpace=wrap;html=1;rounded=0;" parent="wh1VDPlwhrJuEoQ05Rx--106" vertex="1">
                    <mxGeometry y="68" width="270" height="32" as="geometry"/>
                </mxCell>
                <mxCell id="wh1VDPlwhrJuEoQ05Rx--110" value="ParallaxComponent" style="swimlane;fontStyle=1;align=center;verticalAlign=top;childLayout=stackLayout;horizontal=1;startSize=30;horizontalStack=0;resizeParent=1;resizeParentMax=0;resizeLast=0;collapsible=1;marginBottom=0;whiteSpace=wrap;html=1;rounded=0;" parent="1" vertex="1">
                    <mxGeometry x="-1800" y="850" width="160" height="70" as="geometry"/>
                </mxCell>
                <mxCell id="wh1VDPlwhrJuEoQ05Rx--111" value="+ image: RawImage&lt;br&gt;+ speed: float" style="text;strokeColor=none;fillColor=none;align=left;verticalAlign=top;spacingLeft=4;spacingRight=4;overflow=hidden;rotatable=0;points=[[0,0.5],[1,0.5]];portConstraint=eastwest;whiteSpace=wrap;html=1;rounded=0;" parent="wh1VDPlwhrJuEoQ05Rx--110" vertex="1">
                    <mxGeometry y="30" width="160" height="40" as="geometry"/>
                </mxCell>
                <mxCell id="wh1VDPlwhrJuEoQ05Rx--118" value="MainMenuController" style="swimlane;fontStyle=1;align=center;verticalAlign=top;childLayout=stackLayout;horizontal=1;startSize=30;horizontalStack=0;resizeParent=1;resizeParentMax=0;resizeLast=0;collapsible=1;marginBottom=0;whiteSpace=wrap;html=1;rounded=0;" parent="1" vertex="1">
                    <mxGeometry x="-1460" y="680" width="270" height="620" as="geometry"/>
                </mxCell>
                <mxCell id="wh1VDPlwhrJuEoQ05Rx--119" value="- volumentTextValue: Text&lt;br&gt;- volumeSlider: Slider&lt;br&gt;- defaultVolume: float&lt;br&gt;- confirmationPrompt: GameObject&lt;br&gt;- controllerSentTextValue: Text&lt;br&gt;- controllerSenSlider: Slider&lt;br&gt;- defaultSen: float&lt;br&gt;+ mainControllerSen: float&lt;br&gt;- invertYToggle: Toggle&lt;br&gt;- brightnessTexValue: Text&lt;br&gt;- brightnessSlider: Slider&lt;br&gt;- defaultBrightness: float&lt;br&gt;- _qualityLevel: int&lt;br&gt;- _isFullScreen: bool&lt;br&gt;- _brightnessLevel: float&lt;br&gt;+ _newGameLevel: string&lt;br&gt;+ levelToLoad: string&lt;br&gt;- resolutionDropDown: Dropdown&lt;br&gt;- resolutions: Resolution[]&lt;br&gt;- _qualityDropDown: Dropdown&lt;br&gt;- fulScreenToggle: Toggle&lt;br&gt;- noSavedGameDialog: GameObject&lt;br&gt;+ mainMenuSoundtrack: AudioClip" style="text;strokeColor=none;fillColor=none;align=left;verticalAlign=top;spacingLeft=4;spacingRight=4;overflow=hidden;rotatable=0;points=[[0,0.5],[1,0.5]];portConstraint=eastwest;whiteSpace=wrap;html=1;rounded=0;" parent="wh1VDPlwhrJuEoQ05Rx--118" vertex="1">
                    <mxGeometry y="30" width="270" height="340" as="geometry"/>
                </mxCell>
                <mxCell id="wh1VDPlwhrJuEoQ05Rx--120" value="" style="line;strokeWidth=1;fillColor=none;align=left;verticalAlign=middle;spacingTop=-1;spacingLeft=3;spacingRight=3;rotatable=0;labelPosition=right;points=[];portConstraint=eastwest;strokeColor=inherit;rounded=0;" parent="wh1VDPlwhrJuEoQ05Rx--118" vertex="1">
                    <mxGeometry y="370" width="270" height="8" as="geometry"/>
                </mxCell>
                <mxCell id="wh1VDPlwhrJuEoQ05Rx--121" value="+ Start(): void&lt;br&gt;+ newGameDialogYes(): void&lt;br&gt;+ LoadLeve(string): void&lt;br&gt;+ LoadGameDialogYes(): void&lt;br&gt;+ ExitGame(): void&lt;br&gt;+ SetVolume(float): void&lt;br&gt;+ VolumeApply(): void&lt;br&gt;+ ResetButton(string): void&lt;br&gt;+ SetControllerSen(float): void&lt;br&gt;+ GameplayApply(): void&lt;br&gt;+ SetBrightness(float): void&lt;br&gt;+ SetFullScreen(bool): void&lt;br&gt;+ SetQuality(int): void&lt;br&gt;+ SetResolution(int): void&lt;br&gt;+ GraphicsApply(): void&lt;br&gt;+ ConfirmationBox(): IEnumerator" style="text;strokeColor=none;fillColor=none;align=left;verticalAlign=top;spacingLeft=4;spacingRight=4;overflow=hidden;rotatable=0;points=[[0,0.5],[1,0.5]];portConstraint=eastwest;whiteSpace=wrap;html=1;rounded=0;" parent="wh1VDPlwhrJuEoQ05Rx--118" vertex="1">
                    <mxGeometry y="378" width="270" height="242" as="geometry"/>
                </mxCell>
                <mxCell id="k_uUMt3e5FIYH3u3VzYH-13" style="edgeStyle=orthogonalEdgeStyle;rounded=0;orthogonalLoop=1;jettySize=auto;html=1;endArrow=diamondThin;endFill=1;" parent="1" source="wh1VDPlwhrJuEoQ05Rx--127" target="W6KYNCeRG4IzSDQAHKKi-10" edge="1">
                    <mxGeometry relative="1" as="geometry"/>
                </mxCell>
                <mxCell id="wh1VDPlwhrJuEoQ05Rx--127" value="#PauseMenu" style="swimlane;fontStyle=1;align=center;verticalAlign=top;childLayout=stackLayout;horizontal=1;startSize=30;horizontalStack=0;resizeParent=1;resizeParentMax=0;resizeLast=0;collapsible=1;marginBottom=0;whiteSpace=wrap;html=1;rounded=0;" parent="1" vertex="1">
                    <mxGeometry x="-1625" y="-1498" width="250" height="180" as="geometry"/>
                </mxCell>
                <mxCell id="wh1VDPlwhrJuEoQ05Rx--128" value="- _content: GameObject&lt;br&gt;- _levelManager: LevelManager" style="text;strokeColor=none;fillColor=none;align=left;verticalAlign=top;spacingLeft=4;spacingRight=4;overflow=hidden;rotatable=0;points=[[0,0.5],[1,0.5]];portConstraint=eastwest;whiteSpace=wrap;html=1;rounded=0;" parent="wh1VDPlwhrJuEoQ05Rx--127" vertex="1">
                    <mxGeometry y="30" width="250" height="40" as="geometry"/>
                </mxCell>
                <mxCell id="wh1VDPlwhrJuEoQ05Rx--129" value="" style="line;strokeWidth=1;fillColor=none;align=left;verticalAlign=middle;spacingTop=-1;spacingLeft=3;spacingRight=3;rotatable=0;labelPosition=right;points=[];portConstraint=eastwest;strokeColor=inherit;rounded=0;" parent="wh1VDPlwhrJuEoQ05Rx--127" vertex="1">
                    <mxGeometry y="70" width="250" height="8" as="geometry"/>
                </mxCell>
                <mxCell id="wh1VDPlwhrJuEoQ05Rx--130" value="+ Pause(InputAction.CallbackContext): void&lt;br&gt;+ Resume(): void&lt;br&gt;+ Load(): void&lt;br&gt;+ Save(): void&lt;br&gt;+ Restart(): void&lt;br&gt;- Start(): void" style="text;strokeColor=none;fillColor=none;align=left;verticalAlign=top;spacingLeft=4;spacingRight=4;overflow=hidden;rotatable=0;points=[[0,0.5],[1,0.5]];portConstraint=eastwest;whiteSpace=wrap;html=1;rounded=0;" parent="wh1VDPlwhrJuEoQ05Rx--127" vertex="1">
                    <mxGeometry y="78" width="250" height="102" as="geometry"/>
                </mxCell>
                <mxCell id="wh1VDPlwhrJuEoQ05Rx--132" value="UpdateFirstSelected" style="swimlane;fontStyle=1;align=center;verticalAlign=top;childLayout=stackLayout;horizontal=1;startSize=30;horizontalStack=0;resizeParent=1;resizeParentMax=0;resizeLast=0;collapsible=1;marginBottom=0;whiteSpace=wrap;html=1;rounded=0;" parent="1" vertex="1">
                    <mxGeometry x="-1040" y="920" width="180" height="90" as="geometry"/>
                </mxCell>
                <mxCell id="wh1VDPlwhrJuEoQ05Rx--133" value="+ firstSelected: GameObject" style="text;strokeColor=none;fillColor=none;align=left;verticalAlign=top;spacingLeft=4;spacingRight=4;overflow=hidden;rotatable=0;points=[[0,0.5],[1,0.5]];portConstraint=eastwest;whiteSpace=wrap;html=1;rounded=0;" parent="wh1VDPlwhrJuEoQ05Rx--132" vertex="1">
                    <mxGeometry y="30" width="180" height="20" as="geometry"/>
                </mxCell>
                <mxCell id="wh1VDPlwhrJuEoQ05Rx--134" value="" style="line;strokeWidth=1;fillColor=none;align=left;verticalAlign=middle;spacingTop=-1;spacingLeft=3;spacingRight=3;rotatable=0;labelPosition=right;points=[];portConstraint=eastwest;strokeColor=inherit;rounded=0;" parent="wh1VDPlwhrJuEoQ05Rx--132" vertex="1">
                    <mxGeometry y="50" width="180" height="8" as="geometry"/>
                </mxCell>
                <mxCell id="wh1VDPlwhrJuEoQ05Rx--135" value="- OnEnable(): void" style="text;strokeColor=none;fillColor=none;align=left;verticalAlign=top;spacingLeft=4;spacingRight=4;overflow=hidden;rotatable=0;points=[[0,0.5],[1,0.5]];portConstraint=eastwest;whiteSpace=wrap;html=1;rounded=0;" parent="wh1VDPlwhrJuEoQ05Rx--132" vertex="1">
                    <mxGeometry y="58" width="180" height="32" as="geometry"/>
                </mxCell>
                <mxCell id="k_uUMt3e5FIYH3u3VzYH-7" style="edgeStyle=orthogonalEdgeStyle;rounded=0;orthogonalLoop=1;jettySize=auto;html=1;endArrow=none;endFill=0;exitX=0.5;exitY=0;exitDx=0;exitDy=0;" parent="1" source="KOgd2Xpb_pLB63_OI3lD-12" edge="1">
                    <mxGeometry relative="1" as="geometry">
                        <mxPoint x="-210" y="-1893.8599999999997" as="sourcePoint"/>
                        <mxPoint x="-1280" y="-1990" as="targetPoint"/>
                        <Array as="points">
                            <mxPoint x="-280" y="-1990"/>
                            <mxPoint x="-1280" y="-1990"/>
                        </Array>
                    </mxGeometry>
                </mxCell>
                <mxCell id="k_uUMt3e5FIYH3u3VzYH-8" style="edgeStyle=orthogonalEdgeStyle;rounded=0;orthogonalLoop=1;jettySize=auto;html=1;endArrow=diamondThin;endFill=0;startArrow=none;startFill=0;" parent="1" source="KOgd2Xpb_pLB63_OI3lD-2" target="KOgd2Xpb_pLB63_OI3lD-9" edge="1">
                    <mxGeometry relative="1" as="geometry">
                        <Array as="points">
                            <mxPoint x="-830" y="-1827.5"/>
                            <mxPoint x="-830" y="-1827.5"/>
                        </Array>
                    </mxGeometry>
                </mxCell>
                <mxCell id="18" value="1" style="edgeLabel;html=1;align=center;verticalAlign=middle;resizable=0;points=[];" vertex="1" connectable="0" parent="k_uUMt3e5FIYH3u3VzYH-8">
                    <mxGeometry x="-0.2626" y="2" relative="1" as="geometry">
                        <mxPoint x="202" y="9" as="offset"/>
                    </mxGeometry>
                </mxCell>
                <mxCell id="k_uUMt3e5FIYH3u3VzYH-9" style="edgeStyle=orthogonalEdgeStyle;rounded=0;orthogonalLoop=1;jettySize=auto;html=1;endArrow=diamondThin;endFill=0;" parent="1" edge="1" target="KOgd2Xpb_pLB63_OI3lD-5">
                    <mxGeometry relative="1" as="geometry">
                        <mxPoint x="-1060" y="-1990" as="sourcePoint"/>
                        <mxPoint x="-630" y="-1982.5" as="targetPoint"/>
                        <Array as="points">
                            <mxPoint x="-1060" y="-1990"/>
                        </Array>
                    </mxGeometry>
                </mxCell>
                <mxCell id="8" value="&amp;nbsp; &amp;nbsp;1" style="text;html=1;align=center;verticalAlign=middle;resizable=0;points=[];autosize=1;strokeColor=none;fillColor=none;rounded=0;" vertex="1" parent="1">
                    <mxGeometry x="-1514" y="-1915" width="40" height="30" as="geometry"/>
                </mxCell>
                <mxCell id="9" value="1" style="text;html=1;align=center;verticalAlign=middle;resizable=0;points=[];autosize=1;strokeColor=none;fillColor=none;rounded=0;" vertex="1" parent="1">
                    <mxGeometry x="-635" y="-1917.5" width="30" height="30" as="geometry"/>
                </mxCell>
                <mxCell id="10" value="&amp;nbsp; &amp;nbsp;1" style="text;html=1;align=center;verticalAlign=middle;resizable=0;points=[];autosize=1;strokeColor=none;fillColor=none;rounded=0;" vertex="1" parent="1">
                    <mxGeometry x="-295" y="-1917.5" width="40" height="30" as="geometry"/>
                </mxCell>
                <mxCell id="15" value="" style="endArrow=none;dashed=1;html=1;rounded=0;" edge="1" parent="1">
                    <mxGeometry width="50" height="50" relative="1" as="geometry">
                        <mxPoint x="-740" y="-1272.5" as="sourcePoint"/>
                        <mxPoint x="-630" y="-1272.5" as="targetPoint"/>
                    </mxGeometry>
                </mxCell>
                <mxCell id="19" value="1" style="text;html=1;align=center;verticalAlign=middle;resizable=0;points=[];autosize=1;strokeColor=none;fillColor=none;" vertex="1" parent="1">
                    <mxGeometry x="-635" y="-1519.5" width="30" height="30" as="geometry"/>
                </mxCell>
                <mxCell id="20" value="1" style="text;html=1;align=center;verticalAlign=middle;resizable=0;points=[];autosize=1;strokeColor=none;fillColor=none;" vertex="1" parent="1">
                    <mxGeometry x="-635" y="-1592.5" width="30" height="30" as="geometry"/>
                </mxCell>
                <mxCell id="27" value="*" style="text;html=1;align=center;verticalAlign=middle;resizable=0;points=[];autosize=1;strokeColor=none;fillColor=none;" vertex="1" parent="1">
                    <mxGeometry x="-2236" y="-1960" width="30" height="30" as="geometry"/>
                </mxCell>
                <mxCell id="28" value="1" style="text;html=1;align=center;verticalAlign=middle;resizable=0;points=[];autosize=1;strokeColor=none;fillColor=none;" vertex="1" parent="1">
                    <mxGeometry x="-2236" y="-1985" width="30" height="30" as="geometry"/>
                </mxCell>
                <mxCell id="30" value="1" style="text;html=1;align=center;verticalAlign=middle;resizable=0;points=[];autosize=1;strokeColor=none;fillColor=none;" vertex="1" parent="1">
                    <mxGeometry x="-1835" y="-1965" width="30" height="30" as="geometry"/>
                </mxCell>
                <mxCell id="31" value="*" style="text;html=1;align=center;verticalAlign=middle;resizable=0;points=[];autosize=1;strokeColor=none;fillColor=none;" vertex="1" parent="1">
                    <mxGeometry x="-1835" y="-1915" width="30" height="30" as="geometry"/>
                </mxCell>
                <mxCell id="33" value="*" style="text;html=1;align=center;verticalAlign=middle;resizable=0;points=[];autosize=1;strokeColor=none;fillColor=none;" vertex="1" parent="1">
                    <mxGeometry x="-2040" y="-1740" width="30" height="30" as="geometry"/>
                </mxCell>
                <mxCell id="34" value="1" style="text;html=1;align=center;verticalAlign=middle;resizable=0;points=[];autosize=1;strokeColor=none;fillColor=none;" vertex="1" parent="1">
                    <mxGeometry x="-2040" y="-1955" width="30" height="30" as="geometry"/>
                </mxCell>
                <mxCell id="36" value="*" style="text;html=1;align=center;verticalAlign=middle;resizable=0;points=[];autosize=1;strokeColor=none;fillColor=none;" vertex="1" parent="1">
                    <mxGeometry x="-2437" y="-1869" width="30" height="30" as="geometry"/>
                </mxCell>
                <mxCell id="37" value="1" style="text;html=1;align=center;verticalAlign=middle;resizable=0;points=[];autosize=1;strokeColor=none;fillColor=none;" vertex="1" parent="1">
                    <mxGeometry x="-2435" y="-1919" width="30" height="30" as="geometry"/>
                </mxCell>
                <mxCell id="51" value="1" style="text;html=1;align=center;verticalAlign=middle;resizable=0;points=[];autosize=1;strokeColor=none;fillColor=none;" vertex="1" parent="1">
                    <mxGeometry x="-2658" y="-2095" width="30" height="30" as="geometry"/>
                </mxCell>
                <mxCell id="52" value="1" style="text;html=1;align=center;verticalAlign=middle;resizable=0;points=[];autosize=1;strokeColor=none;fillColor=none;" vertex="1" parent="1">
                    <mxGeometry x="-2420" y="-2095" width="30" height="30" as="geometry"/>
                </mxCell>
                <mxCell id="53" value="1" style="text;html=1;align=center;verticalAlign=middle;resizable=0;points=[];autosize=1;strokeColor=none;fillColor=none;" vertex="1" parent="1">
                    <mxGeometry x="-2220" y="-2095" width="30" height="30" as="geometry"/>
                </mxCell>
                <mxCell id="54" value="1" style="text;html=1;align=center;verticalAlign=middle;resizable=0;points=[];autosize=1;strokeColor=none;fillColor=none;" vertex="1" parent="1">
                    <mxGeometry x="-2025" y="-2095" width="30" height="30" as="geometry"/>
                </mxCell>
                <mxCell id="55" value="1" style="text;html=1;align=center;verticalAlign=middle;resizable=0;points=[];autosize=1;strokeColor=none;fillColor=none;" vertex="1" parent="1">
                    <mxGeometry x="-1814" y="-2095" width="30" height="30" as="geometry"/>
                </mxCell>
                <mxCell id="56" value="1" style="text;html=1;align=center;verticalAlign=middle;resizable=0;points=[];autosize=1;strokeColor=none;fillColor=none;" vertex="1" parent="1">
                    <mxGeometry x="-1677" y="-2247" width="30" height="30" as="geometry"/>
                </mxCell>
            </root>
        </mxGraphModel>
    </diagram>
</mxfile>